<svg width="303" height="84" viewBox="0 0 303 84" fill="none" xmlns="http://www.w3.org/2000/svg">
<path d="M82.9972 30.968C83.7652 32.952 84.8692 33.976 86.3092 34.04V35C85.0292 34.904 83.3172 34.856 81.1732 34.856C78.4212 34.856 76.3732 34.904 75.0292 35V34.04C76.2452 33.976 77.1092 33.832 77.6212 33.608C78.1652 33.352 78.4372 32.904 78.4372 32.264C78.4372 31.72 78.2452 30.968 77.8612 30.008L74.9332 22.136H63.3172L61.3492 27.224C60.7092 28.952 60.3892 30.264 60.3892 31.16C60.3892 32.152 60.7252 32.872 61.3972 33.32C62.1012 33.768 63.1572 34.008 64.5652 34.04V35C62.7412 34.904 60.9012 34.856 59.0452 34.856C57.6052 34.856 56.4052 34.904 55.4452 35V34.04C57.0452 33.656 58.3092 32.264 59.2372 29.864L70.5172 0.776001H71.2852L82.9972 30.968ZM74.5492 21.176L69.1732 6.824L63.7012 21.176H74.5492Z" fill="#222222"/>
<path d="M117.216 6.776C116.096 6.84 115.264 7.016 114.72 7.304C114.176 7.56 113.808 8.008 113.616 8.648C113.424 9.256 113.328 10.168 113.328 11.384V35.24H112.224L93.0236 8.648V29.432C93.0236 30.68 93.1196 31.608 93.3116 32.216C93.5356 32.824 93.9516 33.272 94.5596 33.56C95.1676 33.816 96.1116 33.976 97.3916 34.04V35C96.2396 34.904 94.6076 34.856 92.4956 34.856C90.5756 34.856 89.0876 34.904 88.0316 35V34.04C89.1516 33.976 89.9836 33.816 90.5276 33.56C91.0716 33.272 91.4396 32.824 91.6316 32.216C91.8236 31.576 91.9196 30.648 91.9196 29.432V10.904C91.9196 9.688 91.8236 8.808 91.6316 8.264C91.4396 7.72 91.0716 7.352 90.5276 7.16C90.0156 6.968 89.1836 6.84 88.0316 6.776V5.816C89.0876 5.912 90.5756 5.96 92.4956 5.96C94.2236 5.96 95.6956 5.912 96.9116 5.816L112.224 27.128V11.384C112.224 10.136 112.112 9.208 111.888 8.6C111.696 7.992 111.296 7.56 110.688 7.304C110.08 7.016 109.136 6.84 107.856 6.776V5.816C109.008 5.912 110.64 5.96 112.752 5.96C114.672 5.96 116.16 5.912 117.216 5.816V6.776Z" fill="#222222"/>
<path d="M132.85 6.776C131.698 6.84 130.85 6.968 130.306 7.16C129.794 7.352 129.442 7.72 129.25 8.264C129.058 8.808 128.962 9.688 128.962 10.904V29.912C128.962 31.128 129.058 32.008 129.25 32.552C129.442 33.096 129.794 33.464 130.306 33.656C130.85 33.848 131.698 33.976 132.85 34.04V35C131.378 34.904 129.346 34.856 126.754 34.856C124.002 34.856 121.954 34.904 120.61 35V34.04C121.762 33.976 122.594 33.848 123.106 33.656C123.65 33.464 124.018 33.096 124.21 32.552C124.402 32.008 124.498 31.128 124.498 29.912V10.904C124.498 9.688 124.402 8.808 124.21 8.264C124.018 7.72 123.65 7.352 123.106 7.16C122.594 6.968 121.762 6.84 120.61 6.776V5.816C121.954 5.912 124.002 5.96 126.754 5.96C129.314 5.96 131.346 5.912 132.85 5.816V6.776Z" fill="#222222"/>
<path d="M173.691 6.776C172.539 6.84 171.691 6.968 171.147 7.16C170.635 7.352 170.283 7.72 170.091 8.264C169.899 8.808 169.803 9.688 169.803 10.904V29.912C169.803 31.128 169.899 32.008 170.091 32.552C170.283 33.096 170.635 33.464 171.147 33.656C171.691 33.848 172.539 33.976 173.691 34.04V35C172.219 34.904 170.187 34.856 167.595 34.856C164.843 34.856 162.795 34.904 161.451 35V34.04C162.603 33.976 163.435 33.848 163.947 33.656C164.491 33.464 164.859 33.096 165.051 32.552C165.243 32.008 165.339 31.128 165.339 29.912V8.84L153.771 35.24H153.003L141.867 8.888V29.432C141.867 30.68 141.963 31.608 142.155 32.216C142.379 32.824 142.795 33.272 143.403 33.56C144.011 33.816 144.955 33.976 146.235 34.04V35C145.083 34.904 143.451 34.856 141.339 34.856C139.419 34.856 137.931 34.904 136.875 35V34.04C137.995 33.976 138.827 33.816 139.371 33.56C139.915 33.272 140.283 32.824 140.475 32.216C140.667 31.576 140.763 30.648 140.763 29.432V10.904C140.763 9.688 140.667 8.808 140.475 8.264C140.283 7.72 139.915 7.352 139.371 7.16C138.859 6.968 138.027 6.84 136.875 6.776V5.816C137.931 5.912 139.419 5.96 141.339 5.96C142.875 5.96 144.235 5.912 145.419 5.816L155.067 29.192L165.339 5.96H167.595C170.187 5.96 172.219 5.912 173.691 5.816V6.776Z" fill="#222222"/>
<path d="M202.087 30.968C202.951 32.952 204.055 33.976 205.399 34.04V35C204.119 34.904 202.407 34.856 200.263 34.856C197.511 34.856 195.463 34.904 194.119 35V34.04C195.303 33.976 196.167 33.816 196.711 33.56C197.287 33.304 197.575 32.872 197.575 32.264C197.575 31.752 197.351 31 196.903 30.008L194.455 24.536H182.791L181.159 28.136C180.615 29.384 180.343 30.408 180.343 31.208C180.343 32.04 180.631 32.696 181.207 33.176C181.815 33.624 182.775 33.912 184.087 34.04V35C183.127 34.904 181.671 34.856 179.719 34.856C177.767 34.856 176.375 34.904 175.543 35V34.04C176.407 33.816 177.143 33.336 177.751 32.6C178.359 31.832 178.935 30.824 179.479 29.576L190.087 5.576H190.855L202.087 30.968ZM194.071 23.576L188.647 11.384L183.175 23.576H194.071Z" fill="#222222"/>
<path d="M219.522 6.776C218.37 6.84 217.522 6.968 216.978 7.16C216.466 7.352 216.114 7.72 215.922 8.264C215.73 8.808 215.634 9.688 215.634 10.904V29.912C215.634 31.128 215.73 32.008 215.922 32.552C216.114 33.096 216.466 33.464 216.978 33.656C217.522 33.848 218.37 33.976 219.522 34.04V35C218.05 34.904 216.018 34.856 213.426 34.856C210.674 34.856 208.626 34.904 207.282 35V34.04C208.434 33.976 209.266 33.848 209.778 33.656C210.322 33.464 210.69 33.096 210.882 32.552C211.074 32.008 211.17 31.128 211.17 29.912V10.904C211.17 9.688 211.074 8.808 210.882 8.264C210.69 7.72 210.322 7.352 209.778 7.16C209.266 6.968 208.434 6.84 207.282 6.776V5.816C208.626 5.912 210.674 5.96 213.426 5.96C215.986 5.96 218.018 5.912 219.522 5.816V6.776Z" fill="#222222"/>
<path d="M233.819 5.144C235.227 5.144 236.331 5.304 237.131 5.624C237.963 5.912 238.811 6.344 239.675 6.92C240.379 7.368 240.923 7.592 241.307 7.592C241.595 7.592 241.819 7.432 241.979 7.112C242.139 6.76 242.267 6.216 242.363 5.48H243.467C243.307 7.144 243.227 10.088 243.227 14.312H242.123C241.931 12.008 241.179 10.056 239.867 8.456C238.587 6.856 236.715 6.056 234.251 6.056C232.555 6.056 231.147 6.504 230.027 7.4C228.939 8.296 228.395 9.432 228.395 10.808C228.395 11.8 228.635 12.664 229.115 13.4C229.627 14.136 230.267 14.776 231.035 15.32C231.835 15.832 232.955 16.472 234.395 17.24L235.979 18.104C237.963 19.16 239.547 20.104 240.731 20.936C241.947 21.768 242.923 22.728 243.659 23.816C244.395 24.872 244.763 26.104 244.763 27.512C244.763 30.104 243.819 32.12 241.931 33.56C240.075 34.968 237.739 35.672 234.923 35.672C233.387 35.672 232.123 35.512 231.131 35.192C230.171 34.872 229.243 34.44 228.347 33.896C227.643 33.448 227.099 33.224 226.715 33.224C226.427 33.224 226.203 33.4 226.043 33.752C225.883 34.072 225.755 34.6 225.659 35.336H224.555C224.683 33.768 224.747 30.248 224.747 24.776H225.851C226.075 27.752 226.875 30.152 228.251 31.976C229.627 33.8 231.739 34.712 234.587 34.712C236.187 34.712 237.563 34.264 238.715 33.368C239.899 32.44 240.491 31.08 240.491 29.288C240.491 28.232 240.187 27.304 239.579 26.504C238.971 25.672 238.155 24.936 237.131 24.296C236.107 23.656 234.683 22.856 232.859 21.896C230.235 20.552 228.235 19.208 226.859 17.864C225.483 16.52 224.795 14.776 224.795 12.632C224.795 10.264 225.659 8.424 227.387 7.112C229.147 5.8 231.291 5.144 233.819 5.144Z" fill="#222222"/>
<path d="M24.3742 49.016C24.1502 51.288 24.0382 53.336 24.0382 55.16C24.0382 56.76 24.0862 58.072 24.1822 59.096H23.0782C22.8222 56.632 22.5022 54.808 22.1182 53.624C21.7342 52.408 21.0622 51.528 20.1022 50.984C19.1422 50.408 17.6702 50.12 15.6862 50.12H12.6622C11.5102 50.12 10.6622 50.216 10.1182 50.408C9.60624 50.568 9.25424 50.92 9.06224 51.464C8.87024 52.008 8.77424 52.888 8.77424 54.104V65.912H12.2782C13.3982 65.912 14.2622 65.656 14.8702 65.144C15.4782 64.6 15.8782 63.976 16.0702 63.272C16.2942 62.536 16.4702 61.624 16.5982 60.536L16.7422 59.576H17.8462C17.7502 60.92 17.7022 62.424 17.7022 64.088V66.392C17.7022 68.024 17.7982 70.296 17.9902 73.208H16.8862C16.8542 72.984 16.7582 72.216 16.5982 70.904C16.4382 69.56 15.9902 68.552 15.2542 67.88C14.5502 67.208 13.5582 66.872 12.2782 66.872H8.77424V77.912C8.77424 79.128 8.90224 80.008 9.15824 80.552C9.41424 81.096 9.86224 81.464 10.5022 81.656C11.1422 81.848 12.1822 81.976 13.6222 82.04V83C11.9582 82.904 9.60624 82.856 6.56624 82.856C3.81424 82.856 1.76624 82.904 0.422241 83V82.04C1.57424 81.976 2.40624 81.848 2.91824 81.656C3.46224 81.464 3.83024 81.096 4.02224 80.552C4.21424 80.008 4.31024 79.128 4.31024 77.912V54.104C4.31024 52.888 4.21424 52.008 4.02224 51.464C3.83024 50.92 3.46224 50.552 2.91824 50.36C2.40624 50.168 1.57424 50.04 0.422241 49.976V49.016C3.55824 49.112 8.19824 49.16 14.3422 49.16C19.0462 49.16 22.3902 49.112 24.3742 49.016Z" fill="#222222"/>
<path d="M48.9 78.968C49.764 80.952 50.868 81.976 52.212 82.04V83C50.932 82.904 49.22 82.856 47.076 82.856C44.324 82.856 42.276 82.904 40.932 83V82.04C42.116 81.976 42.98 81.816 43.524 81.56C44.1 81.304 44.388 80.872 44.388 80.264C44.388 79.752 44.164 79 43.716 78.008L41.268 72.536H29.604L27.972 76.136C27.428 77.384 27.156 78.408 27.156 79.208C27.156 80.04 27.444 80.696 28.02 81.176C28.628 81.624 29.588 81.912 30.9 82.04V83C29.94 82.904 28.484 82.856 26.532 82.856C24.58 82.856 23.188 82.904 22.356 83V82.04C23.22 81.816 23.956 81.336 24.564 80.6C25.172 79.832 25.748 78.824 26.292 77.576L36.9 53.576H37.668L48.9 78.968ZM40.884 71.576L35.46 59.384L29.988 71.576H40.884Z" fill="#222222"/>
<path d="M83.2781 54.776C82.1581 54.84 81.3261 55.016 80.7821 55.304C80.2381 55.56 79.8701 56.008 79.6781 56.648C79.4861 57.256 79.3901 58.168 79.3901 59.384V83.24H78.2861L59.0861 56.648V77.432C59.0861 78.68 59.1821 79.608 59.3741 80.216C59.5981 80.824 60.0141 81.272 60.6221 81.56C61.2301 81.816 62.1741 81.976 63.4541 82.04V83C62.3021 82.904 60.6701 82.856 58.5581 82.856C56.6381 82.856 55.1501 82.904 54.0941 83V82.04C55.2141 81.976 56.0461 81.816 56.5901 81.56C57.1341 81.272 57.5021 80.824 57.6941 80.216C57.8861 79.576 57.9821 78.648 57.9821 77.432V58.904C57.9821 57.688 57.8861 56.808 57.6941 56.264C57.5021 55.72 57.1341 55.352 56.5901 55.16C56.0781 54.968 55.2461 54.84 54.0941 54.776V53.816C55.1501 53.912 56.6381 53.96 58.5581 53.96C60.2861 53.96 61.7581 53.912 62.9741 53.816L78.2861 75.128V59.384C78.2861 58.136 78.1741 57.208 77.9501 56.6C77.7581 55.992 77.3581 55.56 76.7501 55.304C76.1421 55.016 75.1981 54.84 73.9181 54.776V53.816C75.0701 53.912 76.7021 53.96 78.8141 53.96C80.7341 53.96 82.2221 53.912 83.2781 53.816V54.776Z" fill="#222222"/>
<path d="M113.593 53.816C113.369 55.928 113.257 57.816 113.257 59.48C113.257 61.144 113.305 62.456 113.401 63.416H112.297C112.105 61.176 111.801 59.464 111.385 58.28C110.969 57.096 110.297 56.248 109.369 55.736C108.441 55.192 107.113 54.92 105.385 54.92H102.313V77.432C102.313 78.776 102.441 79.752 102.697 80.36C102.953 80.968 103.401 81.384 104.041 81.608C104.681 81.832 105.721 81.976 107.161 82.04V83C105.497 82.904 103.145 82.856 100.105 82.856C96.9055 82.856 94.5375 82.904 93.0015 83V82.04C94.4415 81.976 95.4815 81.832 96.1215 81.608C96.7615 81.384 97.2095 80.968 97.4655 80.36C97.7215 79.752 97.8495 78.776 97.8495 77.432V54.92H94.7775C93.0495 54.92 91.7215 55.192 90.7935 55.736C89.8655 56.248 89.1935 57.096 88.7775 58.28C88.3615 59.464 88.0575 61.176 87.8655 63.416H86.7615C86.8575 62.392 86.9055 61.08 86.9055 59.48C86.9055 57.816 86.7935 55.928 86.5695 53.816C89.2255 53.912 93.7375 53.96 100.105 53.96C106.441 53.96 110.937 53.912 113.593 53.816Z" fill="#222222"/>
<path d="M138.478 78.968C139.342 80.952 140.446 81.976 141.79 82.04V83C140.51 82.904 138.798 82.856 136.654 82.856C133.902 82.856 131.854 82.904 130.51 83V82.04C131.694 81.976 132.558 81.816 133.102 81.56C133.678 81.304 133.966 80.872 133.966 80.264C133.966 79.752 133.742 79 133.294 78.008L130.846 72.536H119.182L117.55 76.136C117.006 77.384 116.734 78.408 116.734 79.208C116.734 80.04 117.022 80.696 117.598 81.176C118.206 81.624 119.166 81.912 120.478 82.04V83C119.518 82.904 118.062 82.856 116.11 82.856C114.158 82.856 112.766 82.904 111.934 83V82.04C112.798 81.816 113.534 81.336 114.142 80.6C114.75 79.832 115.326 78.824 115.87 77.576L126.478 53.576H127.246L138.478 78.968ZM130.462 71.576L125.038 59.384L119.566 71.576H130.462ZM131.518 41.624C132.03 41.304 132.51 41.144 132.958 41.144C133.566 41.144 134.062 41.416 134.446 41.96C134.638 42.248 134.734 42.552 134.734 42.872C134.734 43.576 134.302 44.2 133.438 44.744C132.766 45.16 131.614 45.672 129.982 46.28C127.582 47.24 125.518 48.152 123.79 49.016L123.454 48.392C124.766 47.4 125.886 46.488 126.814 45.656C127.774 44.792 128.366 44.264 128.59 44.072C129.774 42.952 130.75 42.136 131.518 41.624Z" fill="#222222"/>
<path d="M153.944 53.144C155.352 53.144 156.456 53.304 157.256 53.624C158.088 53.912 158.936 54.344 159.8 54.92C160.504 55.368 161.048 55.592 161.432 55.592C161.72 55.592 161.944 55.432 162.104 55.112C162.264 54.76 162.392 54.216 162.488 53.48H163.592C163.432 55.144 163.352 58.088 163.352 62.312H162.248C162.056 60.008 161.304 58.056 159.992 56.456C158.712 54.856 156.84 54.056 154.376 54.056C152.68 54.056 151.272 54.504 150.152 55.4C149.064 56.296 148.52 57.432 148.52 58.808C148.52 59.8 148.76 60.664 149.24 61.4C149.752 62.136 150.392 62.776 151.16 63.32C151.96 63.832 153.08 64.472 154.52 65.24L156.104 66.104C158.088 67.16 159.672 68.104 160.856 68.936C162.072 69.768 163.048 70.728 163.784 71.816C164.52 72.872 164.888 74.104 164.888 75.512C164.888 78.104 163.944 80.12 162.056 81.56C160.2 82.968 157.864 83.672 155.048 83.672C153.512 83.672 152.248 83.512 151.256 83.192C150.296 82.872 149.368 82.44 148.472 81.896C147.768 81.448 147.224 81.224 146.84 81.224C146.552 81.224 146.328 81.4 146.168 81.752C146.008 82.072 145.88 82.6 145.784 83.336H144.68C144.808 81.768 144.872 78.248 144.872 72.776H145.976C146.2 75.752 147 78.152 148.376 79.976C149.752 81.8 151.864 82.712 154.712 82.712C156.312 82.712 157.688 82.264 158.84 81.368C160.024 80.44 160.616 79.08 160.616 77.288C160.616 76.232 160.312 75.304 159.704 74.504C159.096 73.672 158.28 72.936 157.256 72.296C156.232 71.656 154.808 70.856 152.984 69.896C150.36 68.552 148.36 67.208 146.984 65.864C145.608 64.52 144.92 62.776 144.92 60.632C144.92 58.264 145.784 56.424 147.512 55.112C149.272 53.8 151.416 53.144 153.944 53.144Z" fill="#222222"/>
<path d="M196 53.816C195.776 55.928 195.664 57.816 195.664 59.48C195.664 61.144 195.712 62.456 195.808 63.416H194.704C194.512 61.176 194.208 59.464 193.792 58.28C193.376 57.096 192.704 56.248 191.776 55.736C190.848 55.192 189.52 54.92 187.792 54.92H184.72V77.432C184.72 78.776 184.848 79.752 185.104 80.36C185.36 80.968 185.808 81.384 186.448 81.608C187.088 81.832 188.128 81.976 189.568 82.04V83C187.904 82.904 185.552 82.856 182.512 82.856C179.312 82.856 176.944 82.904 175.408 83V82.04C176.848 81.976 177.888 81.832 178.528 81.608C179.168 81.384 179.616 80.968 179.872 80.36C180.128 79.752 180.256 78.776 180.256 77.432V54.92H177.184C175.456 54.92 174.128 55.192 173.2 55.736C172.272 56.248 171.6 57.096 171.184 58.28C170.768 59.464 170.464 61.176 170.272 63.416H169.168C169.264 62.392 169.312 61.08 169.312 59.48C169.312 57.816 169.2 55.928 168.976 53.816C171.632 53.912 176.144 53.96 182.512 53.96C188.848 53.96 193.344 53.912 196 53.816Z" fill="#222222"/>
<path d="M211.881 54.776C210.729 54.84 209.881 54.968 209.337 55.16C208.825 55.352 208.473 55.72 208.281 56.264C208.089 56.808 207.993 57.688 207.993 58.904V77.912C207.993 79.128 208.089 80.008 208.281 80.552C208.473 81.096 208.825 81.464 209.337 81.656C209.881 81.848 210.729 81.976 211.881 82.04V83C210.409 82.904 208.377 82.856 205.785 82.856C203.033 82.856 200.985 82.904 199.641 83V82.04C200.793 81.976 201.625 81.848 202.137 81.656C202.681 81.464 203.049 81.096 203.241 80.552C203.433 80.008 203.529 79.128 203.529 77.912V58.904C203.529 57.688 203.433 56.808 203.241 56.264C203.049 55.72 202.681 55.352 202.137 55.16C201.625 54.968 200.793 54.84 199.641 54.776V53.816C200.985 53.912 203.033 53.96 205.785 53.96C208.345 53.96 210.377 53.912 211.881 53.816V54.776Z" fill="#222222"/>
<path d="M230.365 53.144C231.933 53.144 233.261 53.416 234.349 53.96C235.437 54.472 236.573 55.24 237.757 56.264C238.109 56.552 238.413 56.696 238.669 56.696C239.309 56.696 239.725 55.736 239.917 53.816H241.021C240.893 55.736 240.829 59.096 240.829 63.896H239.725C239.405 62.232 239.085 61 238.765 60.2C238.445 59.4 237.965 58.584 237.325 57.752C236.429 56.568 235.357 55.672 234.109 55.064C232.861 54.424 231.549 54.104 230.173 54.104C228.285 54.104 226.637 54.68 225.229 55.832C223.853 56.984 222.781 58.648 222.013 60.824C221.245 63 220.861 65.56 220.861 68.504C220.861 71.512 221.277 74.088 222.109 76.232C222.973 78.344 224.125 79.96 225.565 81.08C227.037 82.168 228.685 82.712 230.509 82.712C231.917 82.712 233.261 82.408 234.541 81.8C235.853 81.16 236.957 80.248 237.853 79.064C238.461 78.232 238.909 77.352 239.197 76.424C239.517 75.496 239.805 74.168 240.061 72.44H241.165C241.165 77.464 241.229 80.984 241.357 83H240.253C240.157 82.008 240.013 81.288 239.821 80.84C239.629 80.36 239.373 80.12 239.053 80.12C238.797 80.12 238.477 80.264 238.093 80.552C236.877 81.576 235.693 82.36 234.541 82.904C233.389 83.416 231.981 83.672 230.317 83.672C227.469 83.672 224.973 83.096 222.829 81.944C220.685 80.76 219.021 79.048 217.837 76.808C216.653 74.536 216.061 71.832 216.061 68.696C216.061 65.624 216.669 62.92 217.885 60.584C219.101 58.216 220.797 56.392 222.973 55.112C225.149 53.8 227.613 53.144 230.365 53.144Z" fill="#222222"/>
<path d="M261.641 53.144C264.585 53.144 267.16 53.736 269.368 54.92C271.608 56.072 273.336 57.784 274.552 60.056C275.768 62.296 276.376 64.984 276.376 68.12C276.376 71.192 275.737 73.912 274.457 76.28C273.209 78.616 271.464 80.44 269.224 81.752C266.984 83.032 264.44 83.672 261.592 83.672C258.648 83.672 256.056 83.096 253.816 81.944C251.608 80.76 249.896 79.048 248.68 76.808C247.464 74.536 246.856 71.832 246.856 68.696C246.856 65.624 247.48 62.92 248.728 60.584C250.008 58.216 251.768 56.392 254.008 55.112C256.248 53.8 258.793 53.144 261.641 53.144ZM261.448 54.008C259.496 54.008 257.768 54.632 256.264 55.88C254.792 57.096 253.656 58.808 252.856 61.016C252.056 63.192 251.656 65.688 251.656 68.504C251.656 71.352 252.104 73.864 253 76.04C253.896 78.216 255.112 79.896 256.648 81.08C258.184 82.232 259.897 82.808 261.785 82.808C263.737 82.808 265.449 82.2 266.921 80.984C268.425 79.736 269.576 78.024 270.376 75.848C271.176 73.64 271.577 71.128 271.577 68.312C271.577 65.464 271.129 62.952 270.233 60.776C269.337 58.6 268.121 56.936 266.585 55.784C265.049 54.6 263.336 54.008 261.448 54.008Z" fill="#222222"/>
<path d="M291.194 53.144C292.602 53.144 293.706 53.304 294.506 53.624C295.338 53.912 296.186 54.344 297.05 54.92C297.754 55.368 298.298 55.592 298.682 55.592C298.97 55.592 299.194 55.432 299.354 55.112C299.514 54.76 299.642 54.216 299.738 53.48H300.842C300.682 55.144 300.602 58.088 300.602 62.312H299.498C299.306 60.008 298.554 58.056 297.242 56.456C295.962 54.856 294.09 54.056 291.626 54.056C289.93 54.056 288.522 54.504 287.402 55.4C286.314 56.296 285.77 57.432 285.77 58.808C285.77 59.8 286.01 60.664 286.49 61.4C287.002 62.136 287.642 62.776 288.41 63.32C289.21 63.832 290.33 64.472 291.77 65.24L293.354 66.104C295.338 67.16 296.922 68.104 298.106 68.936C299.322 69.768 300.298 70.728 301.034 71.816C301.77 72.872 302.138 74.104 302.138 75.512C302.138 78.104 301.194 80.12 299.306 81.56C297.45 82.968 295.114 83.672 292.298 83.672C290.762 83.672 289.498 83.512 288.506 83.192C287.546 82.872 286.618 82.44 285.722 81.896C285.018 81.448 284.474 81.224 284.09 81.224C283.802 81.224 283.578 81.4 283.418 81.752C283.258 82.072 283.13 82.6 283.034 83.336H281.93C282.058 81.768 282.122 78.248 282.122 72.776H283.226C283.45 75.752 284.25 78.152 285.626 79.976C287.002 81.8 289.114 82.712 291.962 82.712C293.562 82.712 294.938 82.264 296.09 81.368C297.274 80.44 297.866 79.08 297.866 77.288C297.866 76.232 297.562 75.304 296.954 74.504C296.346 73.672 295.53 72.936 294.506 72.296C293.482 71.656 292.058 70.856 290.234 69.896C287.61 68.552 285.61 67.208 284.234 65.864C282.858 64.52 282.17 62.776 282.17 60.632C282.17 58.264 283.034 56.424 284.762 55.112C286.522 53.8 288.666 53.144 291.194 53.144Z" fill="#222222"/>
</svg>
