<svg width="303" height="84" fill="none" xmlns="http://www.w3.org/2000/svg"><path d="M82.997 30.968c.768 1.984 1.872 3.008 3.312 3.072V35c-1.28-.096-2.992-.144-5.136-.144-2.752 0-4.8.048-6.144.144v-.96c1.216-.064 2.08-.208 2.592-.432.544-.256.816-.704.816-1.344 0-.544-.192-1.296-.576-2.256l-2.928-7.872H63.317l-1.968 5.088c-.64 1.728-.96 3.04-.96 3.936 0 .992.336 1.712 1.008 2.16.704.448 1.76.688 3.168.72V35a105.011 105.011 0 0 0-5.52-.144c-1.44 0-2.64.048-3.6.144v-.96c1.6-.384 2.864-1.776 3.792-4.176L70.517.776h.768l11.712 30.192Zm-8.448-9.792L69.173 6.824l-5.472 14.352H74.55ZM117.216 6.776c-1.12.064-1.952.24-2.496.528-.544.256-.912.704-1.104 1.344-.192.608-.288 1.52-.288 2.736V35.24h-1.104l-19.2-26.592v20.784c0 1.248.096 2.176.288 2.784.224.608.64 1.056 1.248 1.344.608.256 1.552.416 2.832.48V35c-1.152-.096-2.784-.144-4.896-.144-1.92 0-3.408.048-4.464.144v-.96c1.12-.064 1.952-.224 2.496-.48.544-.288.912-.736 1.104-1.344.192-.64.288-1.568.288-2.784V10.904c0-1.216-.096-2.096-.288-2.64a1.726 1.726 0 0 0-1.104-1.104c-.512-.192-1.344-.32-2.496-.384v-.96c1.056.096 2.544.144 4.464.144 1.728 0 3.2-.048 4.416-.144l15.312 21.312V11.384c0-1.248-.112-2.176-.336-2.784-.192-.608-.592-1.04-1.2-1.296-.608-.288-1.552-.464-2.832-.528v-.96c1.152.096 2.784.144 4.896.144 1.92 0 3.408-.048 4.464-.144v.96ZM132.85 6.776c-1.152.064-2 .192-2.544.384-.512.192-.864.56-1.056 1.104-.192.544-.288 1.424-.288 2.64v19.008c0 1.216.096 2.096.288 2.64.192.544.544.912 1.056 1.104.544.192 1.392.32 2.544.384V35c-1.472-.096-3.504-.144-6.096-.144-2.752 0-4.8.048-6.144.144v-.96c1.152-.064 1.984-.192 2.496-.384.544-.192.912-.56 1.104-1.104.192-.544.288-1.424.288-2.64V10.904c0-1.216-.096-2.096-.288-2.64a1.726 1.726 0 0 0-1.104-1.104c-.512-.192-1.344-.32-2.496-.384v-.96c1.344.096 3.392.144 6.144.144 2.56 0 4.592-.048 6.096-.144v.96ZM173.691 6.776c-1.152.064-2 .192-2.544.384-.512.192-.864.56-1.056 1.104-.192.544-.288 1.424-.288 2.64v19.008c0 1.216.096 2.096.288 2.64.192.544.544.912 1.056 1.104.544.192 1.392.32 2.544.384V35c-1.472-.096-3.504-.144-6.096-.144-2.752 0-4.8.048-6.144.144v-.96c1.152-.064 1.984-.192 2.496-.384.544-.192.912-.56 1.104-1.104.192-.544.288-1.424.288-2.64V8.84l-11.568 26.4h-.768L141.867 8.888v20.544c0 1.248.096 2.176.288 2.784.224.608.64 1.056 1.248 1.344.608.256 1.552.416 2.832.48V35c-1.152-.096-2.784-.144-4.896-.144-1.92 0-3.408.048-4.464.144v-.96c1.12-.064 1.952-.224 2.496-.48.544-.288.912-.736 1.104-1.344.192-.64.288-1.568.288-2.784V10.904c0-1.216-.096-2.096-.288-2.64a1.726 1.726 0 0 0-1.104-1.104c-.512-.192-1.344-.32-2.496-.384v-.96c1.056.096 2.544.144 4.464.144 1.536 0 2.896-.048 4.08-.144l9.648 23.376L165.339 5.96h2.256c2.592 0 4.624-.048 6.096-.144v.96ZM202.087 30.968c.864 1.984 1.968 3.008 3.312 3.072V35c-1.28-.096-2.992-.144-5.136-.144-2.752 0-4.8.048-6.144.144v-.96c1.184-.064 2.048-.224 2.592-.48.576-.256.864-.688.864-1.296 0-.512-.224-1.264-.672-2.256l-2.448-5.472h-11.664l-1.632 3.6c-.544 1.248-.816 2.272-.816 3.072 0 .832.288 1.488.864 1.968.608.448 1.568.736 2.88.864V35c-.96-.096-2.416-.144-4.368-.144-1.952 0-3.344.048-4.176.144v-.96c.864-.224 1.6-.704 2.208-1.44.608-.768 1.184-1.776 1.728-3.024l10.608-24h.768l11.232 25.392Zm-8.016-7.392-5.424-12.192-5.472 12.192h10.896ZM219.522 6.776c-1.152.064-2 .192-2.544.384-.512.192-.864.56-1.056 1.104-.192.544-.288 1.424-.288 2.64v19.008c0 1.216.096 2.096.288 2.64.192.544.544.912 1.056 1.104.544.192 1.392.32 2.544.384V35c-1.472-.096-3.504-.144-6.096-.144-2.752 0-4.8.048-6.144.144v-.96c1.152-.064 1.984-.192 2.496-.384.544-.192.912-.56 1.104-1.104.192-.544.288-1.424.288-2.64V10.904c0-1.216-.096-2.096-.288-2.64a1.726 1.726 0 0 0-1.104-1.104c-.512-.192-1.344-.32-2.496-.384v-.96c1.344.096 3.392.144 6.144.144 2.56 0 4.592-.048 6.096-.144v.96ZM233.819 5.144c1.408 0 2.512.16 3.312.48.832.288 1.68.72 2.544 1.296.704.448 1.248.672 1.632.672.288 0 .512-.16.672-.48.16-.352.288-.896.384-1.632h1.104c-.16 1.664-.24 4.608-.24 8.832h-1.104c-.192-2.304-.944-4.256-2.256-5.856-1.28-1.6-3.152-2.4-5.616-2.4-1.696 0-3.104.448-4.224 1.344-1.088.896-1.632 2.032-1.632 3.408 0 .992.24 1.856.72 2.592a7.816 7.816 0 0 0 1.92 1.92c.8.512 1.92 1.152 3.36 1.92l1.584.864c1.984 1.056 3.568 2 4.752 2.832 1.216.832 2.192 1.792 2.928 2.88.736 1.056 1.104 2.288 1.104 3.696 0 2.592-.944 4.608-2.832 6.048-1.856 1.408-4.192 2.112-7.008 2.112-1.536 0-2.8-.16-3.792-.48-.96-.32-1.888-.752-2.784-1.296-.704-.448-1.248-.672-1.632-.672-.288 0-.512.176-.672.528-.16.32-.288.848-.384 1.584h-1.104c.128-1.568.192-5.088.192-10.56h1.104c.224 2.976 1.024 5.376 2.4 7.2 1.376 1.824 3.488 2.736 6.336 2.736 1.6 0 2.976-.448 4.128-1.344 1.184-.928 1.776-2.288 1.776-4.08 0-1.056-.304-1.984-.912-2.784-.608-.832-1.424-1.568-2.448-2.208-1.024-.64-2.448-1.44-4.272-2.4-2.624-1.344-4.624-2.688-6-4.032-1.376-1.344-2.064-3.088-2.064-5.232 0-2.368.864-4.208 2.592-5.52 1.76-1.312 3.904-1.968 6.432-1.968ZM24.374 49.016c-.224 2.272-.336 4.32-.336 6.144 0 1.6.048 2.912.144 3.936h-1.104c-.256-2.464-.576-4.288-.96-5.472-.384-1.216-1.056-2.096-2.016-2.64-.96-.576-2.432-.864-4.416-.864h-3.024c-1.152 0-2 .096-2.544.288-.512.16-.864.512-1.056 1.056-.192.544-.288 1.424-.288 2.64v11.808h3.504c1.12 0 1.984-.256 2.592-.768.608-.544 1.008-1.168 1.2-1.872.224-.736.4-1.648.528-2.736l.144-.96h1.104a63.831 63.831 0 0 0-.144 4.512v2.304c0 1.632.096 3.904.288 6.816h-1.104c-.032-.224-.128-.992-.288-2.304-.16-1.344-.608-2.352-1.344-3.024-.704-.672-1.696-1.008-2.976-1.008H8.774v11.04c0 1.216.128 2.096.384 2.64s.704.912 1.344 1.104c.64.192 1.68.32 3.12.384V83c-1.664-.096-4.016-.144-7.056-.144-2.752 0-4.8.048-6.144.144v-.96c1.152-.064 1.984-.192 2.496-.384.544-.192.912-.56 1.104-1.104.192-.544.288-1.424.288-2.64V54.104c0-1.216-.096-2.096-.288-2.64a1.726 1.726 0 0 0-1.104-1.104c-.512-.192-1.344-.32-2.496-.384v-.96c3.136.096 7.776.144 13.92.144 4.704 0 8.048-.048 10.032-.144ZM48.9 78.968c.864 1.984 1.968 3.008 3.312 3.072V83c-1.28-.096-2.992-.144-5.136-.144-2.752 0-4.8.048-6.144.144v-.96c1.184-.064 2.048-.224 2.592-.48.576-.256.864-.688.864-1.296 0-.512-.224-1.264-.672-2.256l-2.448-5.472H29.604l-1.632 3.6c-.544 1.248-.816 2.272-.816 3.072 0 .832.288 1.488.864 1.968.608.448 1.568.736 2.88.864V83c-.96-.096-2.416-.144-4.368-.144-1.952 0-3.344.048-4.176.144v-.96c.864-.224 1.6-.704 2.208-1.44.608-.768 1.184-1.776 1.728-3.024l10.608-24h.768L48.9 78.968Zm-8.016-7.392L35.46 59.384l-5.472 12.192h10.896ZM83.278 54.776c-1.12.064-1.952.24-2.496.528-.544.256-.912.704-1.104 1.344-.192.608-.288 1.52-.288 2.736V83.24h-1.104l-19.2-26.592v20.784c0 1.248.096 2.176.288 2.784.224.608.64 1.056 1.248 1.344.608.256 1.552.416 2.832.48V83c-1.152-.096-2.784-.144-4.896-.144-1.92 0-3.408.048-4.464.144v-.96c1.12-.064 1.952-.224 2.496-.48.544-.288.912-.736 1.104-1.344.192-.64.288-1.568.288-2.784V58.904c0-1.216-.096-2.096-.288-2.64a1.726 1.726 0 0 0-1.104-1.104c-.512-.192-1.344-.32-2.496-.384v-.96c1.056.096 2.544.144 4.464.144 1.728 0 3.2-.048 4.416-.144l15.312 21.312V59.384c0-1.248-.112-2.176-.336-2.784-.192-.608-.592-1.04-1.2-1.296-.608-.288-1.552-.464-2.832-.528v-.96c1.152.096 2.784.144 4.896.144 1.92 0 3.408-.048 4.464-.144v.96ZM113.593 53.816c-.224 2.112-.336 4-.336 5.664 0 1.664.048 2.976.144 3.936h-1.104c-.192-2.24-.496-3.952-.912-5.136-.416-1.184-1.088-2.032-2.016-2.544-.928-.544-2.256-.816-3.984-.816h-3.072v22.512c0 1.344.128 2.32.384 2.928.256.608.704 1.024 1.344 1.248.64.224 1.68.368 3.12.432V83c-1.664-.096-4.016-.144-7.056-.144-3.2 0-5.568.048-7.104.144v-.96c1.44-.064 2.48-.208 3.12-.432.64-.224 1.089-.64 1.345-1.248s.384-1.584.384-2.928V54.92h-3.072c-1.729 0-3.056.272-3.985.816-.928.512-1.6 1.36-2.016 2.544-.415 1.184-.72 2.896-.912 5.136h-1.103c.096-1.024.144-2.336.144-3.936 0-1.664-.113-3.552-.337-5.664 2.656.096 7.168.144 13.536.144 6.336 0 10.832-.048 13.488-.144ZM138.478 78.968c.864 1.984 1.968 3.008 3.312 3.072V83c-1.28-.096-2.992-.144-5.136-.144-2.752 0-4.8.048-6.144.144v-.96c1.184-.064 2.048-.224 2.592-.48.576-.256.864-.688.864-1.296 0-.512-.224-1.264-.672-2.256l-2.448-5.472h-11.664l-1.632 3.6c-.544 1.248-.816 2.272-.816 3.072 0 .832.288 1.488.864 1.968.608.448 1.568.736 2.88.864V83c-.96-.096-2.416-.144-4.368-.144-1.952 0-3.344.048-4.176.144v-.96c.864-.224 1.6-.704 2.208-1.44.608-.768 1.184-1.776 1.728-3.024l10.608-24h.768l11.232 25.392Zm-8.016-7.392-5.424-12.192-5.472 12.192h10.896Zm1.056-29.952c.512-.32.992-.48 1.44-.48.608 0 1.104.272 1.488.816.192.288.288.592.288.912 0 .704-.432 1.328-1.296 1.872-.672.416-1.824.928-3.456 1.536-2.4.96-4.464 1.872-6.192 2.736l-.336-.624a52.63 52.63 0 0 0 3.36-2.736c.96-.864 1.552-1.392 1.776-1.584 1.184-1.12 2.16-1.936 2.928-2.448ZM153.944 53.144c1.408 0 2.512.16 3.312.48.832.288 1.68.72 2.544 1.296.704.448 1.248.672 1.632.672.288 0 .512-.16.672-.48.16-.352.288-.896.384-1.632h1.104c-.16 1.664-.24 4.608-.24 8.832h-1.104c-.192-2.304-.944-4.256-2.256-5.856-1.28-1.6-3.152-2.4-5.616-2.4-1.696 0-3.104.448-4.224 1.344-1.088.896-1.632 2.032-1.632 3.408 0 .992.24 1.856.72 2.592a7.816 7.816 0 0 0 1.92 1.92c.8.512 1.92 1.152 3.36 1.92l1.584.864c1.984 1.056 3.568 2 4.752 2.832 1.216.832 2.192 1.792 2.928 2.88.736 1.056 1.104 2.288 1.104 3.696 0 2.592-.944 4.608-2.832 6.048-1.856 1.408-4.192 2.112-7.008 2.112-1.536 0-2.8-.16-3.792-.48-.96-.32-1.888-.752-2.784-1.296-.704-.448-1.248-.672-1.632-.672-.288 0-.512.176-.672.528-.16.32-.288.848-.384 1.584h-1.104c.128-1.568.192-5.088.192-10.56h1.104c.224 2.976 1.024 5.376 2.4 7.2 1.376 1.824 3.488 2.736 6.336 2.736 1.6 0 2.976-.448 4.128-1.344 1.184-.928 1.776-2.288 1.776-4.08 0-1.056-.304-1.984-.912-2.784-.608-.832-1.424-1.568-2.448-2.208-1.024-.64-2.448-1.44-4.272-2.4-2.624-1.344-4.624-2.688-6-4.032-1.376-1.344-2.064-3.088-2.064-5.232 0-2.368.864-4.208 2.592-5.52 1.76-1.312 3.904-1.968 6.432-1.968ZM196 53.816c-.224 2.112-.336 4-.336 5.664 0 1.664.048 2.976.144 3.936h-1.104c-.192-2.24-.496-3.952-.912-5.136-.416-1.184-1.088-2.032-2.016-2.544-.928-.544-2.256-.816-3.984-.816h-3.072v22.512c0 1.344.128 2.32.384 2.928.256.608.704 1.024 1.344 1.248.64.224 1.68.368 3.12.432V83c-1.664-.096-4.016-.144-7.056-.144-3.2 0-5.568.048-7.104.144v-.96c1.44-.064 2.48-.208 3.12-.432.64-.224 1.088-.64 1.344-1.248s.384-1.584.384-2.928V54.92h-3.072c-1.728 0-3.056.272-3.984.816-.928.512-1.6 1.36-2.016 2.544-.416 1.184-.72 2.896-.912 5.136h-1.104c.096-1.024.144-2.336.144-3.936 0-1.664-.112-3.552-.336-5.664 2.656.096 7.168.144 13.536.144 6.336 0 10.832-.048 13.488-.144ZM211.881 54.776c-1.152.064-2 .192-2.544.384-.512.192-.864.56-1.056 1.104-.192.544-.288 1.424-.288 2.64v19.008c0 1.216.096 2.096.288 2.64.192.544.544.912 1.056 1.104.544.192 1.392.32 2.544.384V83c-1.472-.096-3.504-.144-6.096-.144-2.752 0-4.8.048-6.144.144v-.96c1.152-.064 1.984-.192 2.496-.384.544-.192.912-.56 1.104-1.104.192-.544.288-1.424.288-2.64V58.904c0-1.216-.096-2.096-.288-2.64a1.726 1.726 0 0 0-1.104-1.104c-.512-.192-1.344-.32-2.496-.384v-.96c1.344.096 3.392.144 6.144.144 2.56 0 4.592-.048 6.096-.144v.96ZM230.365 53.144c1.568 0 2.896.272 3.984.816 1.088.512 2.224 1.28 3.408 2.304.352.288.656.432.912.432.64 0 1.056-.96 1.248-2.88h1.104c-.128 1.92-.192 5.28-.192 10.08h-1.104c-.32-1.664-.64-2.896-.96-3.696-.32-.8-.8-1.616-1.44-2.448-.896-1.184-1.968-2.08-3.216-2.688a8.512 8.512 0 0 0-3.936-.96c-1.888 0-3.536.576-4.944 1.728-1.376 1.152-2.448 2.816-3.216 4.992-.768 2.176-1.152 4.736-1.152 7.68 0 3.008.416 5.584 1.248 7.728.864 2.112 2.016 3.728 3.456 4.848a8.116 8.116 0 0 0 4.944 1.632 9.285 9.285 0 0 0 4.032-.912 9.117 9.117 0 0 0 3.312-2.736 8.959 8.959 0 0 0 1.344-2.64c.32-.928.608-2.256.864-3.984h1.104c0 5.024.064 8.544.192 10.56h-1.104c-.096-.992-.24-1.712-.432-2.16-.192-.48-.448-.72-.768-.72-.256 0-.576.144-.96.432-1.216 1.024-2.4 1.808-3.552 2.352-1.152.512-2.56.768-4.224.768-2.848 0-5.344-.576-7.488-1.728-2.144-1.184-3.808-2.896-4.992-5.136-1.184-2.272-1.776-4.976-1.776-8.112 0-3.072.608-5.776 1.824-8.112 1.216-2.368 2.912-4.192 5.088-5.472 2.176-1.312 4.64-1.968 7.392-1.968ZM261.641 53.144c2.944 0 5.519.592 7.727 1.776 2.24 1.152 3.968 2.864 5.184 5.136 1.216 2.24 1.824 4.928 1.824 8.064 0 3.072-.639 5.792-1.919 8.16-1.248 2.336-2.993 4.16-5.233 5.472-2.24 1.28-4.784 1.92-7.632 1.92-2.944 0-5.536-.576-7.776-1.728-2.208-1.184-3.92-2.896-5.136-5.136-1.216-2.272-1.824-4.976-1.824-8.112 0-3.072.624-5.776 1.872-8.112 1.28-2.368 3.04-4.192 5.28-5.472 2.24-1.312 4.785-1.968 7.633-1.968Zm-.193.864c-1.952 0-3.68.624-5.184 1.872-1.472 1.216-2.608 2.928-3.408 5.136-.8 2.176-1.2 4.672-1.2 7.488 0 2.848.448 5.36 1.344 7.536.896 2.176 2.112 3.856 3.648 5.04 1.536 1.152 3.249 1.728 5.137 1.728 1.952 0 3.664-.608 5.136-1.824 1.504-1.248 2.655-2.96 3.455-5.136.8-2.208 1.201-4.72 1.201-7.536 0-2.848-.448-5.36-1.344-7.536-.896-2.176-2.112-3.84-3.648-4.992-1.536-1.184-3.249-1.776-5.137-1.776ZM291.194 53.144c1.408 0 2.512.16 3.312.48.832.288 1.68.72 2.544 1.296.704.448 1.248.672 1.632.672.288 0 .512-.16.672-.48.16-.352.288-.896.384-1.632h1.104c-.16 1.664-.24 4.608-.24 8.832h-1.104c-.192-2.304-.944-4.256-2.256-5.856-1.28-1.6-3.152-2.4-5.616-2.4-1.696 0-3.104.448-4.224 1.344-1.088.896-1.632 2.032-1.632 3.408 0 .992.24 1.856.72 2.592a7.816 7.816 0 0 0 1.92 1.92c.8.512 1.92 1.152 3.36 1.92l1.584.864c1.984 1.056 3.568 2 4.752 2.832 1.216.832 2.192 1.792 2.928 2.88.736 1.056 1.104 2.288 1.104 3.696 0 2.592-.944 4.608-2.832 6.048-1.856 1.408-4.192 2.112-7.008 2.112-1.536 0-2.8-.16-3.792-.48-.96-.32-1.888-.752-2.784-1.296-.704-.448-1.248-.672-1.632-.672-.288 0-.512.176-.672.528-.16.32-.288.848-.384 1.584h-1.104c.128-1.568.192-5.088.192-10.56h1.104c.224 2.976 1.024 5.376 2.4 7.2 1.376 1.824 3.488 2.736 6.336 2.736 1.6 0 2.976-.448 4.128-1.344 1.184-.928 1.776-2.288 1.776-4.08 0-1.056-.304-1.984-.912-2.784-.608-.832-1.424-1.568-2.448-2.208-1.024-.64-2.448-1.44-4.272-2.4-2.624-1.344-4.624-2.688-6-4.032-1.376-1.344-2.064-3.088-2.064-5.232 0-2.368.864-4.208 2.592-5.52 1.76-1.312 3.904-1.968 6.432-1.968Z" fill="#222"/></svg>