<svg xmlns="http://www.w3.org/2000/svg" data-name="Layer 1" width="464.63" height="414.652"><path d="M65.99 109.874c-14.945 14.64-13.005 41.158.74 56.93s36.068 21.853 56.958 20.733 40.873-8.492 59.427-12.865l-3.64-58.845c-40.241.404-80.482.808-113.485-5.953Z" fill="#21bde9"/><path d="M460.277 229.039c-2.952-14.555-4.965-29.278-7.907-43.835-4.052-20.706-4.463-46.23-7.728-70.722-2.802-18.607-6.765-37.101-13.471-54.724-3.952-11.159-8.743-22.135-15.864-31.666C405.903 15.924 393.59 4.527 378.233.975c-11.844-2.354-23.84.092-35.62 1.694-22.535 3.54-46.162 6.396-72.111 7.019-22.949.995-45.922.684-68.884.914-28.012.69-56.045.682-84.045 1.81-12.605.521-25.148 2.668-35.856 3.82-12.38 1.22-24.834 1.013-37.245 1.647-2.56.219-5.116.487-7.662.833 2.923.06 5.85.153 8.764.386C18.384 22.79 7.218 26.78 3.42 58.72c-1.034 11.486-.417 23.033-.09 34.54.348 9.744.223 19.499.672 29.24 1.486 24.682 3.553 49.395 1.726 74.122-.415 9.448-.553 18.916-1.647 28.32C2.855 237.019.906 249.025.404 261.167c-.141 6.137-1.02 12.394.368 18.441 3.4 10.797 15.529 13.59 25.145 16.473 11.586 3.568 23.196 7.273 35.176 9.28a139.531 139.531 0 0 0 27.722 1.19c21.832-1.02 43.765-.746 65.412-4.165 12.919-1.864 29.88-2.855 40.912-1.57-2.374 17.692-.86 35.545.816 53.244.758 4.846.792 9.92 1.433 14.835-2.741 7.763-5.277 15.6-8.037 23.356-1.22 3.61-2.441 7.22-3.63 10.842-1.047 2.786-1.697 6.206.59 8.565 2.804 2.953 7.347 2.59 11.099 2.913a155.329 155.329 0 0 0 18.124-.445c8.261-.636 20.108-2.999 23.877-3.38l-1.43.193c8.65-1.106 17.387-1.245 26.05-2.207 11.467-1.42 22.992-2.26 34.474-3.541 4.869-.85 13.553.072 13.037-7.082-.664-12.645-11.602-21.006-19.963-29.187-2.725-2.658-5.582-5.183-8.208-7.938a85.73 85.73 0 0 0 1.797-17.841c.075-13.06-1.11-26.083-2.218-39.083-.016-.157-.043-.313-.06-.47 4.06-.608 8.117-1.226 12.173-1.8 16.612-3.048 40.557-2.335 61.386-3.09 28.1-1.702 74.562 4.53 95.51-15.987 6.905-5.964 12.364-13.996 12.587-23.382.674-10.249-2.873-20.213-4.269-30.292Zm-264.833 71.819c1.45.176 2.806.389 4.02.65 14.632 2.726 29.251 5.972 44.217 5.886 13.007 0 25.897-1.81 38.752-3.735-1.625 17.626-2.125 35.017-5.422 50.265-1.97 8.985-4.672 14.792-9.983 18.783-1.645 1.247-6.148 1.215-12.88 1.377a270.17 270.17 0 0 0-30.945 2.39c-8.467 1.018-12.618 1.116-14.484-.81-2.09-3.446-1.263-2.026-2.397-5.249-1.418-6.038-2.179-12.22-3.608-18.265-3.603-18.171-6.937-33.59-7.27-51.292Zm88.028 61.193c7.442 11.624 20.73 24.034 21.188 35.075-7.889.374-15.801.308-23.696.582-7.018.068-14.01.699-21.017 1.037-7.502.38-15.04.385-22.482 1.509-16.844 2.922-30.608 6.547-45.412 6.13a5.57 5.57 0 0 0 .241-1.172c2.317-10.517 4.137-21.127 5.926-31.742a26.38 26.38 0 0 0 2.463 6.549c4.717 8.196 15.409 7.167 23.512 6.393 9.712-1.055 19.446-1.814 29.19-2.5 7.037-.67 15.23-.07 20.58-5.517a35.207 35.207 0 0 0 9.254-16.757c.086.137.166.277.253.413Zm171.416-106.978a50.457 50.457 0 0 1-.099 3.32 20.413 20.413 0 0 1-.19 2.172c-1.522 7.148-2.237 7.777-7.706 13.563-4.601 4.216-4.18 4.404-9.2 7.175-14.95 7.58-36.588 7.295-58.261 7.451-15.594.04-31.177.614-46.768.822-12.121.093-24.273.281-36.283 2.092-21.573 2.827-38.108 6.874-61.17 5.529-12.157-.402-22.756-3.73-37.215-5.798-19.331-2.767-38.735.726-57.926 3.01-14.884 1.653-29.887 1.327-44.821 2.22-19.238 1.048-32.518.516-49.975-4.727-7.676-2.147-15.267-4.59-22.91-6.852-8.078-2.709-9.854-3.236-12.53-7.936-1.527-6.836 1.636-35.95 3.592-51.482 1.334-11.439 1.326-22.965 1.955-34.451 1.244-20.063-.113-40.134-1.406-60.159-.96-14.415-.773-28.883-2.048-43.282-1-18.403-5.064-41.022 6.073-56.01 8.024-7.506 19.093-9.41 29.384-12.47.102.01.204.016.305.027 11.318 1.18 22.638 2.544 34.028 2.736 10.115.098 20.216-.79 30.332-.721 16.445.141 32.885.8 49.333.537 19.195-.271 38.38-1.093 57.579-1.096 30.021-.17 60.128-.19 90.028-3.172 22.15-2.031 48.064-8.004 63.52-6.83 18.477 2.37 35.56 21.59 44.15 42.101 1.302 3.387 8.653 22.216 11.048 31.075a313.387 313.387 0 0 1 7.206 35.272c2.676 21.493 3.873 53.08 9.8 77.754q4.288 23.068 8.36 46.179c.678 6.01 1.997 8.085 1.815 11.951Z"/><path d="M34.783 35.775c-9.037.224-9.013 13.464 0 13.713 9.038-.224 9.015-13.464 0-13.713ZM378.922 53.473c-17.883-4.543-36.544-2.738-54.806-2.945-33 .21-65.87 3.06-98.559 7.468-20.98 2.5-42.103 4.235-63.244 3.455-16.873-.433-33.76-1.62-50.636-.753-28.125 1.636-56.324 4.198-83.953 9.857 30.594-2.037 61.317-.674 91.94.069 22.717 1.33 45.46 3.32 68.236 2.423 21.448-.946 42.719-3.845 64.034-6.242 22.741-2.53 45.57-4.158 68.315-6.654 19.95-1.423 40.805-6.322 60.38-3.895 4.486.683 8.879 1.872 13.366 2.56-5.051-1.706-9.903-4.002-15.073-5.343ZM56.353 35.485c-9.037.224-9.014 13.464 0 13.712 9.038-.224 9.014-13.464 0-13.712ZM78.758 32.995c-9.037.224-9.013 13.464 0 13.713 9.038-.224 9.015-13.464 0-13.713ZM172.91 126.304c-.939-6.27-1.954-12.536-3.472-18.697-1.175-4.934-3.272-10.52-8.551-12.206-6.508-1.88-13.304-.759-19.854.312-10.397 1.595-15.133 2.595-24.93 3.216-21.503 1.59-52.596 1.188-69.25 4.45 13.483-.03 26.96 1.06 40.41 1.951 13.156.802 26.377 1.682 39.553.92 8.146-.526 16.223-1.876 24.371-2.318 4.244.127 2.758-.197 6.583.75 2.661 2.667 6.251 27.355 7.206 37.921.717 8.068-1.053 14.519-2.092 15.98-.782.188-1.752.34-2.192.405.159-.021.401-.053.753-.097-.6.068-1.197.151-1.795.237a37.8 37.8 0 0 1 .641-.094c-.184.021-.423.047-.747.078a178.88 178.88 0 0 1-27.688.37c-3.924-.221-7.82-.784-11.742-1.018a110.28 110.28 0 0 0-14.425.875c-17.226 1.7-45.41 10.396-58.1 3.509l-.177-.122c-.6-.664-.627-.433-.925-1.063a9.239 9.239 0 0 1-.108-.273c-1.708-6.715-1.782-14.502-2.675-22.923-.55-8.215-2.534-16.214-4.178-24.255-.923-4.836-1.217-9.777-1.967-14.955.101 5.077-.174 10.163.18 15.232.706 8.148 1.813 16.282 1.498 24.48-.078 6.179-.243 12.364.022 18.54.19 3.631.5 7.652 3.374 10.243 13.427 11.605 49.161 2.518 60.796 1.443a92.04 92.04 0 0 1 26.05-.188 191.138 191.138 0 0 0 28.238.147c4.07-.46 8.783-.142 11.97-3.127 9.182-10.871 4.82-26.915 3.224-39.723Z"/><path d="M160.692 158.988c-.344.046-.28.04 0 0ZM160.291 159.034c.504-.056.49-.067 0 0ZM334.795 97.407c-17.73.537-35.501.06-53.202 1.305-13.548.986-26.908 3.558-40.16 6.448 27.524-1.412 55.353-.174 82.578-5.062 4.421-.834 8.823-1.77 13.229-2.68-.815-.007-1.63-.013-2.445-.01ZM337.513 126.052c-10.578-3.883-22.132-1.836-33.148-1.982-9.855.173-19.679 1-29.518 1.52-8.734.35-17.49.513-26.15 1.82 16.266 1.156 32.478 3.915 48.828 2.41 7.933-.505 15.821-1.509 23.67-2.74 5.413-.81 9.219-1.61 15.4-1 .463 0 2.098.372.918-.028ZM252.784 156.923c11.45.403 22.907 1.348 34.368.828a264.267 264.267 0 0 0 52.54-8.872c-31.865.377-56.369 3.667-86.908 8.044ZM350.703 191.937c-24.533-.595-48.878-5.008-73.47-3.919-25.56.107-44.842 5.604-68.1 6.213-20.286 1.042-40.614-.747-60.887.606-14.358 1.134-28.62 3.243-42.93 4.848a285.031 285.031 0 0 0-51.41 10.363 328.017 328.017 0 0 1 44.705-4.252c16.145-.18 32.272-.97 48.41-1.404 21.766.059 43.525 1.935 65.294.726 26.408-1.216 45.485-6.147 70.409-7.502 22.968-2.254 46.16-.696 69.07-3.663q6.492-.824 12.969-1.753-7.03-.109-14.06-.263ZM341.102 215.871c-20.883.053-45.19 4.822-62.15 6.808-18.488 2.23-37.12 2.762-55.723 3.006-30.358.485-60.626 2.888-90.923 4.647-11.955.518-23.921.78-35.874 1.37-9.529.548-19.034 1.687-27.996 5.136 9.544-2.37 19.35-2.321 29.106-1.72 12.597.764 25.177 1.87 37.794 2.281 32.23 1.063 64.463-.577 96.693-.849a281.532 281.532 0 0 0 53.089-5.97c19.887-4.436 39.44-10.4 59.648-13.32 3.089-.509 6.18-1.015 9.281-1.443q-6.472-.078-12.945.054ZM342.105 249.185c-20.002 1.225-40.053 1.359-60.04 2.762-25.684 2.643-51.49 2.955-77.257 4.253-19.962.916-39.923 1.837-59.901 2.339-17.71 1.17-35.728 1.94-52.86 6.905a146.301 146.301 0 0 1 28.437-1.339q17.554.245 35.044 1.796c16.53 1.36 33.13 1.696 49.71 1.627 26.694-.244 53.374-1.974 79.623-7.025 19.147-2.972 38.348-5.519 57.237-9.93a66.358 66.358 0 0 1 7.992-1.054 65.379 65.379 0 0 0-7.985-.334Z"/></svg>