<svg width="112" height="100" viewBox="0 0 112 100" fill="none" xmlns="http://www.w3.org/2000/svg">
<g clip-path="url(#clip0_808_2)">
<path d="M15.907 26.498C12.3045 30.0286 12.7722 36.4238 16.0853 40.2275C19.3984 44.0312 24.7796 45.4976 29.8153 45.2277C34.851 44.9577 39.6676 43.1797 44.1403 42.125L43.2629 27.9335C33.5626 28.031 23.8624 28.1286 15.907 26.498Z" fill="#21BDE9"/>
<path d="M110.951 55.2365C110.239 51.7262 109.754 48.1757 109.045 44.665C108.068 39.6712 107.969 33.5158 107.182 27.6093C106.506 23.1218 105.551 18.6616 103.935 14.4117C102.982 11.7205 101.827 9.07338 100.111 6.77473C97.8436 3.84028 94.8756 1.09182 91.1738 0.23513C88.3187 -0.332475 85.4269 0.257208 82.5875 0.643636C77.1553 1.49717 71.4601 2.18611 65.205 2.33641C59.6732 2.57647 54.1355 2.50129 48.6005 2.55679C41.848 2.72316 35.0906 2.72124 28.3411 2.9934C25.3028 3.11905 22.2792 3.63669 19.698 3.91443C16.7138 4.20879 13.7118 4.15886 10.7201 4.31186C10.1031 4.36456 9.48674 4.42923 8.87313 4.51282C9.57772 4.52705 10.2831 4.5495 10.9858 4.60574C4.43148 5.49619 1.73988 6.45838 0.824459 14.1614C0.5751 16.9315 0.723995 19.7164 0.802677 22.4913C0.886705 24.8412 0.856542 27.1939 0.964678 29.543C1.32288 35.4956 1.82109 41.4555 1.38068 47.4188C1.28071 49.6974 1.24752 51.9807 0.983738 54.2487C0.688182 57.1609 0.218315 60.0565 0.097367 62.9847C0.0632726 64.4647 -0.148461 65.9736 0.186136 67.432C1.00583 70.0359 3.92934 70.7095 6.2474 71.4049C9.04017 72.2653 11.8389 73.1588 14.7267 73.6427C16.939 73.9603 19.1775 74.0564 21.4089 73.9297C26.6718 73.6837 31.9587 73.7497 37.1767 72.9254C40.2909 72.4758 44.3793 72.2369 47.0386 72.5467C46.4664 76.8134 46.8315 81.1189 47.2354 85.3873C47.4181 86.556 47.4262 87.7797 47.5807 88.965C46.9201 90.8371 46.3087 92.7272 45.6434 94.5977C45.3494 95.4685 45.055 96.3392 44.7686 97.2125C44.5161 97.8844 44.3593 98.7091 44.9108 99.2781C45.5865 99.9901 46.6816 99.9027 47.586 99.9806C49.0432 100.03 50.502 99.9941 51.955 99.8733C53.9463 99.7199 56.802 99.1501 57.7105 99.0582C57.5956 99.0737 57.4808 99.0891 57.3659 99.1045C59.4507 98.8378 61.5569 98.8045 63.6454 98.5724C66.4093 98.2301 69.1875 98.0275 71.9552 97.7183C73.1289 97.5136 75.2222 97.7357 75.0979 96.0104C74.9377 92.961 72.3012 90.9446 70.2857 88.9716C69.6288 88.3306 68.9401 87.7216 68.307 87.0572C68.6014 85.6421 68.7467 84.2 68.7404 82.7545C68.7583 79.6051 68.4729 76.4643 68.2057 73.3291C68.2018 73.2912 68.1954 73.2536 68.1912 73.2158C69.1699 73.069 70.1479 72.9199 71.1255 72.7814C75.1299 72.0465 80.9019 72.2185 85.9227 72.0361C92.6965 71.626 103.896 73.1287 108.946 68.1807C110.61 66.7426 111.926 64.8056 111.98 62.542C112.142 60.0703 111.287 57.6672 110.951 55.2365ZM47.1121 72.5567C47.4618 72.5993 47.7886 72.6506 48.0814 72.7134C51.6083 73.3709 55.1322 74.1539 58.7399 74.1332C61.8751 74.1329 64.9824 73.6965 68.0811 73.2324C67.6893 77.4832 67.5688 81.6772 66.7741 85.3546C66.2993 87.5214 65.6478 88.9218 64.3677 89.8843C63.971 90.1852 62.8857 90.1773 61.263 90.2163C58.7676 90.2653 56.277 90.4578 53.8036 90.7928C51.7626 91.0384 50.762 91.0619 50.3122 90.5973C49.8083 89.7665 50.0078 90.109 49.7344 89.3316C49.3925 87.8755 49.2092 86.3844 48.8647 84.9267C47.9962 80.5444 47.1925 76.8258 47.1121 72.5567ZM68.3314 87.3145C70.1255 90.1179 73.3285 93.1106 73.439 95.7735C71.5372 95.8636 69.63 95.8478 67.7269 95.9138C66.0351 95.9301 64.3496 96.0823 62.6607 96.1638C60.8525 96.2553 59.0352 96.2568 57.2413 96.5277C53.181 97.2325 49.8633 98.1066 46.2948 98.0062C46.3243 97.9143 46.3438 97.8195 46.3529 97.7235C46.9114 95.187 47.35 92.6283 47.7813 90.0684C47.9083 90.6189 48.108 91.15 48.3751 91.6477C49.512 93.6244 52.0893 93.3762 54.0427 93.1895C56.3837 92.9351 58.7302 92.752 61.0788 92.5868C62.7753 92.4252 64.75 92.5697 66.0396 91.256C67.142 90.1409 67.9142 88.7422 68.2704 87.2148C68.2911 87.2478 68.3104 87.2817 68.3314 87.3145V87.3145ZM109.652 61.5151C109.651 61.7821 109.646 62.0492 109.628 62.3155C109.622 62.4909 109.607 62.6658 109.582 62.8395C109.215 64.5635 109.043 64.715 107.725 66.1105C106.615 67.1272 106.717 67.1726 105.507 67.8408C101.903 69.6688 96.6871 69.6002 91.4628 69.6378C87.7039 69.6473 83.9476 69.7858 80.1894 69.8359C77.2675 69.8584 74.3383 69.9038 71.4433 70.3406C66.2429 71.0222 62.2572 71.9983 56.6979 71.6739C53.7677 71.5769 51.2126 70.7744 47.7272 70.2756C43.0675 69.6084 38.3902 70.4507 33.7642 71.0016C30.1763 71.4001 26.5598 71.3216 22.96 71.5367C18.3225 71.7897 15.1215 71.6613 10.9134 70.3969C9.06297 69.8791 7.23334 69.2899 5.39089 68.7445C3.44374 68.0912 3.01563 67.9641 2.37065 66.8305C2.00246 65.1818 2.76496 58.1605 3.23634 54.4149C3.55792 51.6561 3.55591 48.8766 3.70752 46.1064C4.00752 41.2678 3.68038 36.4273 3.36858 31.5982C3.13749 28.1217 3.18247 24.6324 2.87501 21.16C2.63413 16.7218 1.65425 11.2669 4.33899 7.65236C6.27303 5.84194 8.94132 5.3827 11.4221 4.64484C11.4466 4.64737 11.4711 4.6488 11.4956 4.65142C14.2238 4.93572 16.9525 5.2649 19.698 5.31122C22.1362 5.33489 24.5712 5.12053 27.0096 5.13721C30.9736 5.1714 34.9365 5.33048 38.9013 5.26684C43.5284 5.20137 48.1529 5.00321 52.781 5.00255C60.0177 4.9615 67.2748 4.95682 74.4824 4.2376C79.8219 3.74766 86.0683 2.30734 89.7939 2.59017C94.248 3.16191 98.366 7.79731 100.437 12.7438C100.75 13.5606 102.522 18.1014 103.1 20.238C103.841 23.0379 104.421 25.878 104.837 28.7445C105.482 33.9279 105.77 41.5453 107.199 47.4961C107.888 51.2049 108.56 54.9171 109.214 58.6328C109.378 60.0822 109.696 60.5828 109.652 61.5151Z" fill="black"/>
<path d="M8.3846 8.62775C6.20615 8.68176 6.2119 11.8744 8.38471 11.9343C10.5632 11.8803 10.5575 8.68768 8.3846 8.62775Z" fill="black"/>
<path d="M91.3398 12.8959C87.0292 11.8003 82.5309 12.2356 78.1287 12.1857C70.1739 12.2361 62.2507 12.9234 54.371 13.9867C49.3138 14.5898 44.2219 15.008 39.1258 14.8199C35.0586 14.7153 30.9882 14.4291 26.9199 14.6382C20.1403 15.0328 13.3429 15.6506 6.68298 17.0155C14.0577 16.5242 21.4635 16.8528 28.8451 17.0321C34.3213 17.3528 39.8034 17.8328 45.2936 17.6164C50.4638 17.3884 55.5911 16.6891 60.7291 16.111C66.211 15.501 71.7139 15.1084 77.1966 14.5064C82.0059 14.1632 87.0328 12.9817 91.7513 13.567C92.8328 13.7317 93.8916 14.0186 94.9733 14.1844C93.7556 13.7729 92.5862 13.2192 91.3398 12.8959Z" fill="black"/>
<path d="M13.584 8.55774C11.4055 8.61175 11.4112 11.8044 13.5841 11.8643C15.7626 11.8102 15.7569 8.61768 13.584 8.55774Z" fill="black"/>
<path d="M18.9849 7.95734C16.8064 8.01135 16.8121 11.2039 18.9849 11.2639C21.1634 11.2098 21.1578 8.01727 18.9849 7.95734Z" fill="black"/>
<path d="M41.6805 30.4604C41.4539 28.9482 41.2092 27.4369 40.8434 25.9513C40.5602 24.7614 40.0546 23.4142 38.7821 23.0076C37.2134 22.5543 35.5751 22.8246 33.9964 23.0827C31.4901 23.4674 30.3484 23.7085 27.987 23.8584C22.8035 24.2416 15.3084 24.1448 11.2939 24.9316C14.5442 24.9244 17.7929 25.187 21.035 25.4021C24.2062 25.5955 27.393 25.8078 30.5693 25.6238C32.5329 25.497 34.4798 25.1716 36.444 25.0648C37.467 25.0954 37.1086 25.0173 38.0308 25.2459C38.6723 25.889 39.5377 31.8428 39.7679 34.3911C39.9407 36.3368 39.514 37.8925 39.2636 38.2449C39.0751 38.2902 38.8411 38.3271 38.735 38.3425C38.7733 38.3374 38.8319 38.3298 38.9166 38.3192C38.772 38.3356 38.628 38.3556 38.4841 38.3763C38.5496 38.3662 38.5987 38.3592 38.6386 38.3538C38.5942 38.3588 38.5365 38.365 38.4583 38.3725C36.2393 38.5746 34.0079 38.6044 31.7843 38.4615C30.8383 38.4084 29.8992 38.2727 28.9538 38.2161C27.7914 38.2104 26.6298 38.2809 25.4767 38.4273C21.3242 38.8372 14.5303 40.9345 11.4714 39.2734C11.4572 39.2635 11.443 39.2538 11.4289 39.244C11.2841 39.0839 11.2777 39.1395 11.2058 38.9877C11.193 38.9565 11.1858 38.938 11.1797 38.9219C10.7679 37.3023 10.7503 35.4244 10.5349 33.3937C10.4022 31.4123 9.92404 29.4834 9.52781 27.5441C9.30539 26.3779 9.23437 25.1862 9.05371 23.9375C9.07802 25.1619 9.01175 26.3885 9.09729 27.611C9.26736 29.5759 9.53417 31.5376 9.45821 33.5146C9.43945 35.0047 9.3995 36.4965 9.46335 37.986C9.50915 38.8616 9.58411 39.8312 10.2768 40.4562C13.5133 43.255 22.1272 41.0635 24.9317 40.8041C27.0122 40.4912 29.1266 40.476 31.2113 40.7589C33.4762 40.9386 35.7513 40.9504 38.018 40.7943C38.9992 40.6833 40.1351 40.76 40.9033 40.0402C43.1167 37.4184 42.0652 33.5492 41.6805 30.4604Z" fill="black"/>
<path d="M38.735 38.3425C38.6521 38.3536 38.6675 38.3524 38.735 38.3425V38.3425Z" fill="black"/>
<path d="M38.6386 38.3537C38.76 38.34 38.7564 38.3376 38.6386 38.3537V38.3537Z" fill="black"/>
<path d="M80.7031 23.4914C76.4292 23.6207 72.1453 23.5057 67.8785 23.8057C64.6129 24.0435 61.3922 24.6634 58.1979 25.3599C64.8325 25.0195 71.541 25.3179 78.1036 24.1397C79.1693 23.9388 80.2304 23.7131 81.2924 23.4938C81.096 23.4923 80.8995 23.4907 80.7031 23.4914Z" fill="black"/>
<path d="M81.3581 30.3992C78.8083 29.4633 76.0233 29.9565 73.3679 29.9214C70.9922 29.9633 68.6241 30.1624 66.2524 30.288C64.147 30.3722 62.0365 30.4115 59.9491 30.7263C63.8698 31.0051 67.7778 31.6699 71.7191 31.3071C73.6311 31.1856 75.5327 30.9436 77.4248 30.6469C78.7296 30.4517 79.6469 30.2587 81.1368 30.4058C81.2485 30.4057 81.6426 30.4957 81.3581 30.3992Z" fill="black"/>
<path d="M60.9342 37.8444C63.6942 37.9415 66.4558 38.1693 69.2185 38.0438C73.5014 37.7594 77.7447 37.0427 81.8836 35.9046C74.2023 35.9956 68.2957 36.7889 60.9342 37.8444Z" fill="black"/>
<path d="M84.5378 46.2887C78.6239 46.1452 72.7555 45.0811 66.8278 45.3437C60.6662 45.3693 56.0184 46.695 50.4118 46.842C45.5219 47.0934 40.6219 46.6617 35.735 46.9881C32.2741 47.2616 28.8359 47.7702 25.3865 48.1573C21.1877 48.6076 17.0393 49.4442 12.994 50.6566C16.5585 50.0688 20.159 49.7261 23.7703 49.631C27.6622 49.5874 31.5497 49.3973 35.4397 49.2924C40.6865 49.3067 45.9316 49.7591 51.179 49.4676C57.5446 49.1743 62.1431 47.9851 68.1511 47.6582C73.6875 47.1148 79.278 47.4905 84.8008 46.7749C85.844 46.6424 86.886 46.5015 87.9268 46.3522C86.797 46.3346 85.6673 46.3135 84.5378 46.2887Z" fill="black"/>
<path d="M82.2232 52.0608C77.1894 52.0735 71.3303 53.2238 67.2418 53.7027C62.7855 54.2406 58.2942 54.3687 53.8097 54.4277C46.4919 54.5447 39.1958 55.1241 31.8927 55.5484C29.0107 55.6732 26.1264 55.7365 23.2451 55.8789C20.9483 56.0108 18.6569 56.2857 16.4965 57.1174C18.7973 56.5458 21.1609 56.5575 23.5126 56.7024C26.5492 56.8868 29.5818 57.1535 32.6229 57.2527C40.3921 57.509 48.1619 57.1135 55.9311 57.048C60.2328 56.975 64.5178 56.4929 68.7282 55.6083C73.5221 54.5382 78.2352 53.0998 83.1065 52.3959C83.8511 52.2731 84.5962 52.1511 85.3437 52.0479C84.3036 52.0353 83.2635 52.0396 82.2232 52.0608Z" fill="black"/>
<path d="M82.465 60.095C77.6436 60.3905 72.8103 60.4228 67.9921 60.7611C61.8011 61.3984 55.5805 61.4739 49.3695 61.7869C44.5575 62.0076 39.7458 62.2299 34.9301 62.3508C30.6611 62.633 26.3177 62.8189 22.188 64.0161C24.457 63.6858 26.7529 63.5777 29.0429 63.6932C31.8639 63.7326 34.6798 63.877 37.4904 64.1263C41.4749 64.4544 45.4764 64.5353 49.473 64.5187C55.9078 64.4599 62.339 64.0425 68.6664 62.8246C73.2816 62.1079 77.9101 61.4935 82.4634 60.4299C83.0999 60.3061 83.7432 60.2212 84.39 60.1755C83.7506 60.1094 83.1077 60.0825 82.465 60.095V60.095Z" fill="black"/>
</g>
<defs>
<clipPath id="clip0_808_2">
<rect width="112" height="100" fill="white"/>
</clipPath>
</defs>
</svg>
