<svg width="200" height="175" fill="none" xmlns="http://www.w3.org/2000/svg"><g clip-path="url(#a)"><path fill="#141414" d="M1 0h200v174H1z"/><path d="M180.328 90.674a83.312 83.312 0 0 1-23.245 57.832 76.84 76.84 0 0 1-2.774 2.761 82.779 82.779 0 0 1-4.484 3.968 83.222 83.222 0 0 1-53.04 18.998c-14.915 0-33.675-7.968-50.7-18.998a176.168 176.168 0 0 1-4.187-2.801c-.647-.443-1.29-.891-1.93-1.346a171.65 171.65 0 0 1-18.653-15.24 120.87 120.87 0 0 1-10.757-11.505c-13.082-16.139-15.967-30.68 2.683-33.67 2.208-.352 4.35-.73 6.428-1.13 3.01-.58 5.89-1.204 8.642-1.875 3.706-.9 7.188-1.878 10.445-2.93 1.096-.353 2.167-.713 3.212-1.08 15.459-5.43 25.805-12.512 32.848-20.195a55.538 55.538 0 0 0 7.496-10.327 60.018 60.018 0 0 0 4.33-9.655l.063-.183c5.603-16.167 3.898-31.163 10.08-36.181 26.426-21.457 59.325 9.099 74.767 45.132a122.983 122.983 0 0 1 3.087 7.947 112.691 112.691 0 0 1 2.721 8.925c.228.887.447 1.771.649 2.656 1.503 6.474 2.319 12.86 2.319 18.897Z" fill="#3F3D56"/><path d="M98.662 174.212c-.623.014-1.249.021-1.877.021-14.915 0-33.675-7.968-50.7-18.998a173.171 173.171 0 0 1-4.187-2.801l1.213-7.385 36.732-4.878 18.436 14.1.383 19.941Z" fill="#2F2E41"/><path d="M100.43 42.345h-5.234a.612.612 0 0 0-.612.612v5.237a.605.605 0 0 0 .378.564.61.61 0 0 0 .234.045h5.234a.609.609 0 0 0 .611-.609v-5.237a.609.609 0 0 0-.611-.612Z" fill="#fff"/><path d="M100.43 51.27h-5.234a.612.612 0 0 0-.612.612v5.238a.604.604 0 0 0 .18.431.612.612 0 0 0 .432.178h5.234a.608.608 0 0 0 .611-.61v-5.237a.61.61 0 0 0-.611-.611ZM100.43 60.196h-5.234a.612.612 0 0 0-.612.611v5.236a.62.62 0 0 0 .179.432.62.62 0 0 0 .433.18h5.234a.61.61 0 0 0 .611-.612v-5.236a.609.609 0 0 0-.611-.611ZM101.032 69.624a.613.613 0 0 0-.602-.503h-5.234a.61.61 0 0 0-.612.612v5.235a.617.617 0 0 0 .179.433.618.618 0 0 0 .433.178h5.234a.608.608 0 0 0 .611-.611v-5.236a.493.493 0 0 0-.009-.108ZM100.668 78.094a.614.614 0 0 0-.238-.047h-5.234a.597.597 0 0 0-.433.178.62.62 0 0 0-.179.433v5.236a.608.608 0 0 0 .612.61h5.234a.608.608 0 0 0 .611-.61v-5.236a.61.61 0 0 0-.373-.564ZM111.426 42.345h-5.235a.612.612 0 0 0-.611.612v5.237a.611.611 0 0 0 .611.61h5.235a.61.61 0 0 0 .611-.61v-5.237a.61.61 0 0 0-.611-.612Z" fill="#E6E6E6"/><path d="M111.426 51.27h-5.235a.612.612 0 0 0-.611.612v5.238a.611.611 0 0 0 .611.61h5.235a.61.61 0 0 0 .611-.61v-5.238a.61.61 0 0 0-.611-.611ZM111.426 60.196h-5.235a.612.612 0 0 0-.611.611v5.236a.598.598 0 0 0 .179.433.603.603 0 0 0 .432.178h5.235a.612.612 0 0 0 .611-.611v-5.236a.61.61 0 0 0-.611-.611ZM111.426 69.121h-5.235a.61.61 0 0 0-.611.612v5.235a.602.602 0 0 0 .377.565.606.606 0 0 0 .234.046h5.235a.61.61 0 0 0 .611-.611v-5.236a.61.61 0 0 0-.611-.611Z" fill="#21BDE9"/><path d="M111.426 78.047h-5.235a.596.596 0 0 0-.432.178.606.606 0 0 0-.179.433v5.236a.607.607 0 0 0 .611.61h5.235a.61.61 0 0 0 .611-.61v-5.236a.613.613 0 0 0-.611-.611Z" fill="#E6E6E6"/><path d="M122.421 42.345h-5.235a.612.612 0 0 0-.611.612v5.237a.605.605 0 0 0 .179.432.617.617 0 0 0 .432.178h5.235a.609.609 0 0 0 .611-.61v-5.237a.61.61 0 0 0-.611-.612ZM122.421 51.27h-5.235a.612.612 0 0 0-.611.612v5.238a.604.604 0 0 0 .179.431.616.616 0 0 0 .432.178h5.235a.608.608 0 0 0 .611-.61v-5.237a.61.61 0 0 0-.611-.611Z" fill="#21BDE9"/><path d="M122.421 60.196h-5.235a.612.612 0 0 0-.611.611v5.236a.614.614 0 0 0 .611.612h5.235a.61.61 0 0 0 .611-.612v-5.236a.61.61 0 0 0-.611-.611Z" fill="#E6E6E6"/><path d="M122.421 69.121h-5.235a.61.61 0 0 0-.611.612v5.235a.623.623 0 0 0 .179.433.611.611 0 0 0 .432.178h5.235a.608.608 0 0 0 .611-.611v-5.236a.61.61 0 0 0-.611-.611ZM122.421 78.047h-5.235a.599.599 0 0 0-.432.178.622.622 0 0 0-.133.199.63.63 0 0 0-.046.234v5.236c0 .08.016.16.046.234a.624.624 0 0 0 .331.33.597.597 0 0 0 .234.046h5.235a.608.608 0 0 0 .611-.61v-5.236a.609.609 0 0 0-.611-.611ZM133.417 42.345h-5.235a.61.61 0 0 0-.612.612v5.237a.605.605 0 0 0 .18.432.613.613 0 0 0 .432.178h5.235a.612.612 0 0 0 .611-.61v-5.237a.614.614 0 0 0-.611-.612Z" fill="#21BDE9"/><path d="M133.417 51.27h-5.235a.61.61 0 0 0-.612.612v5.238a.604.604 0 0 0 .18.431.612.612 0 0 0 .432.178h5.235a.612.612 0 0 0 .611-.61v-5.237a.614.614 0 0 0-.611-.611ZM133.417 60.196h-5.235a.61.61 0 0 0-.612.611v5.236a.608.608 0 0 0 .179.432.618.618 0 0 0 .433.18h5.235a.611.611 0 0 0 .611-.612v-5.236a.614.614 0 0 0-.611-.611Z" fill="#fff"/><path d="M133.417 69.121h-5.235a.609.609 0 0 0-.432.18.61.61 0 0 0-.18.431v5.236a.605.605 0 0 0 .179.433.615.615 0 0 0 .433.178h5.235a.61.61 0 0 0 .611-.612v-5.234a.615.615 0 0 0-.611-.612Z" fill="#E6E6E6"/><path d="M133.417 78.047h-5.235a.615.615 0 0 0-.565.377.61.61 0 0 0-.047.234v5.236a.61.61 0 0 0 .612.61h5.235a.61.61 0 0 0 .611-.61v-5.236a.61.61 0 0 0-.611-.611Z" fill="#21BDE9"/><path d="M144.412 42.345h-5.237a.61.61 0 0 0-.609.612v5.237a.61.61 0 0 0 .609.61h5.237a.612.612 0 0 0 .611-.61v-5.237a.61.61 0 0 0-.611-.612ZM144.412 51.27h-5.237a.611.611 0 0 0-.609.612v5.238a.61.61 0 0 0 .609.609h5.237a.612.612 0 0 0 .611-.61v-5.237a.61.61 0 0 0-.611-.611ZM144.412 60.196h-5.237a.61.61 0 0 0-.609.611v5.236a.605.605 0 0 0 .177.432.626.626 0 0 0 .432.18h5.237a.612.612 0 0 0 .611-.612v-5.236a.61.61 0 0 0-.611-.611Z" fill="#fff"/><path d="M144.412 69.121h-5.237a.61.61 0 0 0-.609.612v5.235a.606.606 0 0 0 .375.564.603.603 0 0 0 .234.047h5.237a.61.61 0 0 0 .611-.611v-5.236a.61.61 0 0 0-.611-.611Z" fill="#21BDE9"/><path d="M144.412 78.047h-5.237a.603.603 0 0 0-.563.377.606.606 0 0 0-.046.234v5.236a.605.605 0 0 0 .177.431.616.616 0 0 0 .432.179h5.237a.61.61 0 0 0 .611-.61v-5.236a.61.61 0 0 0-.611-.611Z" fill="#E6E6E6"/><path d="M155.407 42.345h-5.237a.612.612 0 0 0-.609.612v5.237a.61.61 0 0 0 .609.61h5.237a.613.613 0 0 0 .612-.61v-5.237a.618.618 0 0 0-.612-.612ZM155.407 51.27h-5.237a.613.613 0 0 0-.609.612v5.238a.61.61 0 0 0 .609.609h5.237a.612.612 0 0 0 .612-.61v-5.237a.618.618 0 0 0-.612-.611Z" fill="#fff"/><path d="M155.407 60.196h-5.237a.612.612 0 0 0-.609.611v5.236a.624.624 0 0 0 .178.432.615.615 0 0 0 .431.18h5.237a.61.61 0 0 0 .612-.612v-5.236a.614.614 0 0 0-.612-.611Z" fill="#21BDE9"/><path d="M155.407 69.121h-5.237a.612.612 0 0 0-.609.612v5.235a.626.626 0 0 0 .178.432.611.611 0 0 0 .431.18h5.237a.61.61 0 0 0 .612-.612v-5.236a.617.617 0 0 0-.612-.612Z" fill="#E6E6E6"/><path d="M155.407 78.047h-5.237a.602.602 0 0 0-.431.179.626.626 0 0 0-.178.432v5.236a.624.624 0 0 0 .178.431.615.615 0 0 0 .431.179h5.237a.61.61 0 0 0 .612-.61v-5.236a.61.61 0 0 0-.612-.611Z" fill="#fff"/><path d="M166.403 42.345h-5.237a.61.61 0 0 0-.609.612v5.237a.61.61 0 0 0 .609.61h5.237a.612.612 0 0 0 .611-.61v-5.237a.614.614 0 0 0-.611-.612ZM166.403 51.27h-5.237a.611.611 0 0 0-.609.612v5.238a.61.61 0 0 0 .609.609h5.237a.612.612 0 0 0 .611-.61v-5.237a.614.614 0 0 0-.611-.611Z" fill="#21BDE9"/><path d="M166.403 60.196h-5.237a.61.61 0 0 0-.609.611v5.236a.605.605 0 0 0 .177.432.615.615 0 0 0 .432.18h5.237a.61.61 0 0 0 .611-.612v-5.236a.614.614 0 0 0-.611-.611Z" fill="#E6E6E6"/><path d="M166.403 69.121h-5.237a.61.61 0 0 0-.609.612v5.235a.606.606 0 0 0 .375.564.607.607 0 0 0 .234.047h5.237a.61.61 0 0 0 .611-.612v-5.234a.615.615 0 0 0-.611-.612Z" fill="#fff"/><path d="M166.403 78.047h-5.237a.607.607 0 0 0-.609.611v5.236a.605.605 0 0 0 .177.431.62.62 0 0 0 .432.179h5.237a.61.61 0 0 0 .611-.61v-5.236a.61.61 0 0 0-.611-.611ZM177.398 42.345h-5.237a.61.61 0 0 0-.609.612v5.237a.611.611 0 0 0 .609.61h5.237a.61.61 0 0 0 .611-.61v-5.237a.613.613 0 0 0-.611-.612ZM177.398 51.27h-5.237a.611.611 0 0 0-.609.612v5.238a.611.611 0 0 0 .609.61h5.237a.61.61 0 0 0 .611-.61v-5.238a.613.613 0 0 0-.611-.611Z" fill="#21BDE9"/><path d="M177.398 60.196h-5.237a.61.61 0 0 0-.609.611v5.236a.624.624 0 0 0 .178.432.605.605 0 0 0 .431.18h5.237a.612.612 0 0 0 .611-.612v-5.236a.613.613 0 0 0-.611-.611Z" fill="#E6E6E6"/><path d="M177.398 69.121h-5.237a.61.61 0 0 0-.609.612v5.235a.626.626 0 0 0 .178.432.6.6 0 0 0 .431.18h5.237a.61.61 0 0 0 .611-.612v-5.236a.614.614 0 0 0-.611-.611ZM177.398 78.047h-5.237a.599.599 0 0 0-.431.179.605.605 0 0 0-.178.432v5.236a.624.624 0 0 0 .178.431.613.613 0 0 0 .431.18h5.237a.61.61 0 0 0 .611-.611v-5.236a.61.61 0 0 0-.611-.611Z" fill="#21BDE9"/><path d="M188.393 42.345h-5.236a.609.609 0 0 0-.609.612v5.237a.61.61 0 0 0 .609.61h5.236a.613.613 0 0 0 .612-.61v-5.237a.618.618 0 0 0-.612-.612Z" fill="#E6E6E6"/><path d="M188.393 51.27h-5.236a.61.61 0 0 0-.609.612v5.238a.61.61 0 0 0 .609.609h5.236a.612.612 0 0 0 .612-.61v-5.237a.618.618 0 0 0-.612-.611ZM188.393 60.196h-5.236a.608.608 0 0 0-.609.611v5.236a.614.614 0 0 0 .609.612h5.236a.614.614 0 0 0 .612-.612v-5.236a.614.614 0 0 0-.612-.611ZM188.393 69.121h-5.236a.608.608 0 0 0-.609.612v5.235c0 .08.015.16.045.234a.622.622 0 0 0 .33.33.607.607 0 0 0 .234.047h5.236a.612.612 0 0 0 .612-.611v-5.236a.617.617 0 0 0-.612-.612Z" fill="#21BDE9"/><path d="M188.393 78.047h-5.236a.607.607 0 0 0-.609.611v5.236c0 .08.015.159.045.233a.616.616 0 0 0 .564.377h5.236a.612.612 0 0 0 .612-.61v-5.236a.613.613 0 0 0-.612-.611ZM199.388 42.345h-5.236a.61.61 0 0 0-.609.612v5.237a.61.61 0 0 0 .609.61h5.236a.611.611 0 0 0 .612-.61v-5.237a.616.616 0 0 0-.612-.611ZM199.388 51.27h-5.236a.611.611 0 0 0-.609.612v5.238a.61.61 0 0 0 .609.609h5.236a.61.61 0 0 0 .612-.61v-5.237a.617.617 0 0 0-.179-.432.617.617 0 0 0-.433-.18Z" fill="#E6E6E6"/><path d="M199.388 60.196h-5.236a.61.61 0 0 0-.609.611v5.236a.605.605 0 0 0 .376.564c.073.031.153.047.233.047h5.236a.612.612 0 0 0 .612-.611v-5.236a.618.618 0 0 0-.179-.431.617.617 0 0 0-.433-.18Z" fill="#21BDE9"/><path d="M199.388 69.121h-5.236a.61.61 0 0 0-.609.612v5.235a.606.606 0 0 0 .376.564.599.599 0 0 0 .233.047h5.236a.61.61 0 0 0 .612-.611v-5.236a.618.618 0 0 0-.179-.431.619.619 0 0 0-.433-.18ZM199.388 78.047h-5.236a.599.599 0 0 0-.431.179.605.605 0 0 0-.178.432v5.236a.605.605 0 0 0 .178.431.603.603 0 0 0 .431.18h5.236a.61.61 0 0 0 .612-.611v-5.236a.613.613 0 0 0-.612-.611Z" fill="#E6E6E6"/><path d="M79.03 155.235h-.145l.124-.017.021.017Z" fill="#2F2E41"/><path d="M66.502 57.634c8.873 0 16.066-7.194 16.066-16.069 0-8.874-7.193-16.068-16.066-16.068-8.872 0-16.065 7.194-16.065 16.068 0 8.875 7.193 16.069 16.066 16.069Z" fill="#8C4D4D"/><path d="M80.572 29.784s4.202-8.034-5.043-8.764c0 0-7.88-7.15-15.913-1.308 0 0-4.382 0-6.778 4.96 0 0-3.446-1.308-4.203 2.19 0 0-2.522 7.304 0 13.878 2.521 6.573 3.359 7.304 3.359 7.304s-4.144-13.782 5.942-14.512c10.086-.73 21.372-7.035 22.212 1 .84 8.034 2.105 10.013 2.105 10.013s7.984-11.474-1.681-14.76Z" fill="#2F2E41"/><path d="m108.061 81.165-.052.273-.581 3.066-4.014 21.215-.237 1.248-.499 2.641-.682 3.604-1.512 7.984-.432 2.288-.163.859-.056.301-.45 2.369-.135.714-1.096 8.121-.957 7.077 3.202 3.204-1.91 1.909-1.252 7.18.002.017H46.086a178.308 178.308 0 0 1-6.119-4.147l.421-3.151s1.449-5.628.84-6.301c-.607-.672-1.938-1.874-1.938-1.874l1.677-3.914.232-.543-.39-8.098-.01-.194-.129-2.67-.016-.343-.026-.516-.496-10.272-.01-.17-.15-3.113-.141-2.962-.061-1.248-.605-12.496-.409-8.485-.357-7.387 1.437-.487 15.366-5.224 6.366-8.276 13.248.099 6.485.049L92.123 73.55l2.461 1.175.02.01 1.765.844 4.477 2.138 4.734 2.263 2.429 1.159.052.026Z" fill="#CACACA"/><path d="M63.28 131.129a7.138 7.138 0 0 1-3.051.465 7.15 7.15 0 0 1-2.962-.87 7.13 7.13 0 0 1-3.55-4.871l-25.056-3.555 8.71-9.855 22.46 4.887a7.159 7.159 0 0 1 7.252 10.419 7.163 7.163 0 0 1-3.803 3.38Z" fill="#FFB6B6"/><path d="M52.108 113.212a3.177 3.177 0 0 0-1.856-1.146l-10.28-2.137-1.056-.219a4.46 4.46 0 0 1-2.946-2.134 4.502 4.502 0 0 1-.576-1.857 4.447 4.447 0 0 1 .209-1.76l3.562-10.736 2.312-6.966c.28-.84.445-1.715.491-2.599a10.195 10.195 0 0 0-2.133-6.794 10.033 10.033 0 0 0-11.524-3.208 10.01 10.01 0 0 0-6.13 6.75l-2.512 9.137-5.18 18.836a13.584 13.584 0 0 0 11.513 17.093l14.807 1.735 6.852.805a3.175 3.175 0 0 0 3.49-2.524c.01-.042.02-.086.025-.129l.165-1.016 1.395-8.556.014-.087a3.167 3.167 0 0 0-.642-2.488Z" fill="#CACACA"/><path d="M79.24 131.403a7.116 7.116 0 0 0 8.723-6.571l24.305-7.055-10.014-8.527-21.545 8.006a7.158 7.158 0 0 0-7.017 6.421 7.164 7.164 0 0 0 5.548 7.726Z" fill="#FFB6B6"/><path d="m124.335 101.998-11.56-26.609a10.067 10.067 0 0 0-4.766-5.021 10.2 10.2 0 0 0-2.397-.828 9.907 9.907 0 0 0-4.58.084 10.078 10.078 0 0 0-6.448 5.144 10.144 10.144 0 0 0-.087 9.137l.144.287 8.169 16.409a4.443 4.443 0 0 1-2.469 6.159l-.574.207-10.318 3.728a3.171 3.171 0 0 0-1.959 3.949l.026.082 2.892 9.257a2.1 2.1 0 0 0 .045.127c.026.08.057.158.094.233a3.167 3.167 0 0 0 3.718 1.771l5.568-1.47 1.135-.301 14.38-3.798a13.584 13.584 0 0 0 8.987-18.547Z" fill="#CACACA"/><path d="M10.558 124.343a120.87 120.87 0 0 0 10.757 11.505h106.279a3.87 3.87 0 0 1 3.861 3.864l.153 26.936a83.568 83.568 0 0 0 22.701-15.381 79.367 79.367 0 0 0 2.774-2.761 83.606 83.606 0 0 0 16.183-24.163H10.558Z" fill="#3F3D56"/><path d="M157.083 148.506a76.84 76.84 0 0 1-2.774 2.761h-22.623v-2.761h25.397Z" fill="#fff"/><path d="M107.849 60.196a1.302 1.302 0 0 0-1.146-.682h-77.09a1.306 1.306 0 0 0-1.302 1.305v46.148h79.698V60.819a1.27 1.27 0 0 0-.16-.623Z" fill="#3F3D56"/><path d="M28.241 105.718v5.695a1.8 1.8 0 0 0 1.11 1.661c.218.09.452.136.688.136h29.416v11.239h-.391a.23.23 0 0 0-.09.018.249.249 0 0 0-.075.05.235.235 0 0 0-.068.166v.781a.235.235 0 0 0 .143.217.248.248 0 0 0 .09.017h18.26c.031 0 .061-.006.09-.017a.237.237 0 0 0 .127-.127.234.234 0 0 0 .017-.09v-.781a.234.234 0 0 0-.068-.166.238.238 0 0 0-.165-.068h-.391V113.21h29.416a1.803 1.803 0 0 0 1.271-.526 1.79 1.79 0 0 0 .389-.583 1.79 1.79 0 0 0 .138-.688v-5.695H28.241Z" fill="#3F3D56"/><path d="M67.229 89.373a7.362 7.362 0 0 0 7.361-7.363 7.362 7.362 0 1 0-14.723 0 7.362 7.362 0 0 0 7.362 7.363ZM85.985 40.687H84.81c0-8.89-8.798-14.715-17.672-14.72a19.37 19.37 0 0 0-3.844.374c-1.425.284-2.904.625-4.358 1.07-5.73 1.757-11.044 5.153-11.044 13.276-.002 1.578.2 3.15.597 4.676l-1.138.296a19.726 19.726 0 0 1-.635-4.972c0-7.098 2.913-11.973 7.945-14.88 2.646-1.529 5.874-2.514 9.573-2.994a22.836 22.836 0 0 1 4.644-.141c10.205.734 17.107 8.56 17.107 18.015Z" fill="#21BDE9"/><path d="m87.944 41.339-.463-3.425a3.697 3.697 0 0 0-1.176-2.248 3.717 3.717 0 0 0-3.116-.94l-.736.1a1.535 1.535 0 0 0-1.023.595 1.537 1.537 0 0 0-.303 1.146l1.07 7.888a1.543 1.543 0 0 0 1.74 1.324l.823-.11a3.707 3.707 0 0 0 2.706-1.788c.44-.77.61-1.665.478-2.542Z" fill="#21BDE9"/><path d="M81.978 34.97c-.216.105-.403.26-.548.451a1.537 1.537 0 0 0-.303 1.146l1.07 7.888a1.543 1.543 0 0 0 1.246 1.31L81.978 34.97Z" fill="#fff"/><path d="m87.944 41.339-.463-3.425a3.697 3.697 0 0 0-1.176-2.248l1.065 7.848c.016.126.049.25.096.367.442-.77.61-1.665.478-2.542ZM84.283 43.806c.321-.044.483-.81.361-1.71-.122-.901-.482-1.596-.804-1.553-.321.044-.483.81-.361 1.71.122.902.482 1.596.804 1.553ZM83.577 39.572c.322-.043.484-.809.362-1.71-.122-.9-.482-1.596-.804-1.552-.322.043-.484.81-.361 1.71.122.901.482 1.596.803 1.552Z" fill="#3F3D56"/><path d="M88.045 41.219c.322-.044.483-.81.361-1.71-.122-.902-.482-1.597-.803-1.553-.322.044-.484.81-.362 1.71.123.902.483 1.597.804 1.553ZM67.138 25.967a19.362 19.362 0 0 0-3.844.374c-1.425.284-2.904.625-4.358 1.07-2.269-.11-3.938-.699-4.275-1.604 2.646-1.529 5.874-2.514 9.573-2.994a22.836 22.836 0 0 1 4.644-.141 1.35 1.35 0 0 1 .64.898c.11.819-.823 1.689-2.38 2.397Z" fill="#3F3D56"/><path d="m52.127 48.848-1.811-7.528a1.417 1.417 0 0 0-1.712-1.05l-.7.17a3.504 3.504 0 0 0-2.585 4.224l.811 3.377a3.727 3.727 0 0 0 1.256 2.028 3.482 3.482 0 0 0 2.993.661l.699-.17c.184-.043.358-.124.51-.237a1.41 1.41 0 0 0 .539-1.475Z" fill="#21BDE9"/><path d="M48.33 47.447c.316-.076.4-.854.187-1.738-.213-.884-.64-1.539-.956-1.463-.316.076-.4.854-.187 1.738.213.884.641 1.54.957 1.463ZM45.98 48.153c.315-.076.398-.854.186-1.738-.213-.884-.641-1.54-.957-1.463-.316.076-.4.854-.186 1.738.212.884.64 1.539.956 1.463Z" fill="#3F3D56"/><path d="m52.242 48.82-1.81-7.528a1.536 1.536 0 0 0-1.245-1.157l2.472 10.282a1.531 1.531 0 0 0 .583-1.597Z" fill="#fff"/><path d="M45.728 43.173a1.521 1.521 0 0 0-.275-.576 3.463 3.463 0 0 0-.134 2.067l.811 3.377a3.727 3.727 0 0 0 1.256 2.028l-1.658-6.896Z" fill="#3F3D56"/></g><defs><clipPath id="a"><path fill="#fff" d="M0 0h200v174.233H0z"/></clipPath></defs></svg>