<svg width="200" height="174" fill="none" xmlns="http://www.w3.org/2000/svg"><path fill="#141414" d="M0 0h200v174H0z"/><g clip-path="url(#a)"><path d="m34.238 147.356 3.013.816 4.582-11.236-4.447-1.205-3.148 11.625Z" fill="#8C4D4D"/><path d="m33.28 150.471 9.266 2.511.032-.118a3.735 3.735 0 0 0-2.63-4.584l-1.345-1.743-3.506.429-.808-.219-1.01 3.724Z" fill="#21BDE9"/><path d="M55.043 149.971h3.122l1.485-12.043h-4.607v12.043Z" fill="#8C4D4D"/><path d="M54.933 153.228h9.6v-.121a3.738 3.738 0 0 0-3.736-3.738l-1.754-1.33-3.272 1.331h-.838v3.858ZM56.376 80.525l4.19 59.349-6.747.597-9.413-43.984 1.044 25.449-3.736 20.016-5.711-2.762.095-20.841-7.498-33.68 1.996-4.144h25.78Z" fill="#21BDE9"/><path d="m29.557 87.91-.042-.06c-2.236-3.13 1.127-10.654 1.634-11.744a2.737 2.737 0 0 1-1.874-2.925l.219-1.858.228-1.824-1.633-1.633-.004-.04-.94-8.223-1.366-5.462a11.992 11.992 0 0 1 3.403-11.62l3.158-.502 3.837-3.698h6.19l2.121 2.028c3.962.694 4.642.468 8.045 4.552l-1.546 12.697-.386 1.746.001 2.37.981 1.09a3.393 3.393 0 0 1 .805 2.933l-.13.645c1.012.434 1.977 8.138 2.208 9.214l.344 1.607c.295.39 2.24 2.983 2.24 3.692 0 .106-.079.21-.248.324-1.325.897-6.61 7.265-9.852 5.967-3.454-1.38-17.183.691-17.322.712l-.071.011Z" fill="#fff"/><path d="M28.726 73.145s1.589-8.984-.012-12.362l-6.352.453.966 12.816 5.553 14.23a2.531 2.531 0 1 0 4.101-1.466l-4.256-13.671Z" fill="#8C4D4D"/><path d="m22.362 56.018.393-4.282a12.279 12.279 0 0 1 4.402-8.338 5.373 5.373 0 0 1 5.623-.743 5.361 5.361 0 0 1 2.768 6.777c-1.468 3.85-.938 7.923-3.8 8.42l.31 1.48-2.814 9.186-8.017-.929 1.135-11.571Z" fill="#fff"/><path d="M53.844 85.328a2.532 2.532 0 0 0 2.906 3.943 2.53 2.53 0 0 0 1.403-3.308L60.81 70.92l-1.563-12.758-6.317.8c-.909 3.627 2.41 12.125 2.41 12.125l-1.496 14.24Z" fill="#8C4D4D"/><path d="m61.604 64.17-7.679 2.483-2.956-4.613.014-1.512c-2.904.074-4.785-7.868-6.98-11.356a5.361 5.361 0 0 1 1.388-7.188 5.373 5.373 0 0 1 5.66-.374A12.276 12.276 0 0 1 57 48.925l1.224 4.121 3.38 11.125Z" fill="#fff"/><path d="M38.854 36.534a6.874 6.874 0 0 0 6.874-6.874 6.874 6.874 0 1 0-6.874 6.874Z" fill="#8C4D4D"/><path d="M33.866 34.505c-.06-.053-.117-.109-.175-.163l-.005.017.18.146ZM44.487 22.4a3.899 3.899 0 0 0-1.376-1.327 5.754 5.754 0 0 0-1.204-.426l-1.087-.297a8.621 8.621 0 0 0-1.712-.345 4.404 4.404 0 0 0-4.023 2.184c-.33.583-.593 1.31-1.227 1.522-.511.172-1.07-.07-1.607-.023a1.935 1.935 0 0 0-1.469 1.082c-.268.578-.4 1.21-.385 1.847a10.35 10.35 0 0 0 3.294 7.725c.177-.467-.115-.972-.346-1.42-.234-.452-.378-1.083.013-1.41.436-.362 1.134-.01 1.649-.247a1.151 1.151 0 0 0 .575-.925c.05-.376-.002-.758.022-1.137a2.847 2.847 0 0 1 3.016-2.663l.026.002c1.172.084 2.31.885 3.439.556.53-.155.981-.55 1.529-.615.607-.074 1.177.269 1.692.597a6.034 6.034 0 0 0-.82-4.68Z" fill="#21BDE9"/><path d="m80.404 149.366-1.75-2.811-.349 1.606c-.06.282-.122.568-.179.851a25.133 25.133 0 0 0-1.542-1.193 4621.74 4621.74 0 0 1-4.762-3.462l.497 2.881c.306 1.774.626 3.585 1.383 5.207.085.184.175.365.273.542h7.382a2.36 2.36 0 0 0 .124-.542c.116-1.1-.492-2.137-1.077-3.079Z" fill="#F0F0F0"/><path d="m88.993 153.264-71.54.069a.27.27 0 0 1-.269-.27c0-.071.028-.14.079-.19a.267.267 0 0 1 .19-.08l71.54-.07a.272.272 0 0 1 .268.27.271.271 0 0 1-.268.271Z" fill="#CACACA"/><path d="M162.94 63.879a31.806 31.806 0 0 1-63.111 5.567 31.815 31.815 0 0 1 22.887-36.307 31.803 31.803 0 0 1 38.413 20.1v.002a32.026 32.026 0 0 1 1.811 10.638Z" fill="#fff"/><path d="M127.416 42.272a10.748 10.748 0 0 0-9.432-.386c-1.319.574-2.708 1.603-3.148 3.463 1.78-1.05 4.083.609 4.541 3.27l-.107.03c-.242 1.844.298 3.851 1.343 4.995a3.511 3.511 0 0 1 1.686-2.501c.768-.505 1.617-.872 2.203-1.74.695-1.028.872-2.532 1.148-3.903.276-1.372.799-2.846 1.766-3.228Z" fill="#21BDE9"/><path d="M117.456 57.961c-.493.74-1.151 1.205-1.742 1.783a4.006 4.006 0 0 0-1.266 2.368c-.075.644.041 1.299.025 1.95s-.233 1.384-.676 1.546c-.7.253-1.233-1.046-1.952-1.137-.571-.07-1.085.828-.92 1.607.166.78.943 1.124 1.39.616.404.677.119 1.907-.488 2.115-.064.427-.128.852-.19 1.28-1.534-1.074-3.083-2.164-4.387-3.735a11.336 11.336 0 0 1-2.583-6.106c-.169-1.806.082-3.872-.747-5.262-.664-1.112-1.802-1.357-2.827-1.288a9.993 9.993 0 0 0-.562.057 31.68 31.68 0 0 1 2.293-5.248c.209-.09.402-.21.575-.358.953-.81 1.377-2.448 2.15-3.582.05-.073.102-.144.155-.213.792-1.034 1.852-1.566 2.877-2.06 2.268-1.102 4.602-2.217 6.996-2.064l-.681.066-2.387 6.682c-.121.342-.244.684-.367 1.027-.452 1.267-.918 2.615-.848 4.033.04.84.332 1.737.887 2.025.518.267 1.084-.06 1.583-.384.212-.136.422-.27.634-.408.759-.49 1.601-.99 2.403-.663.735.299 1.277 1.297 1.381 2.373a4.75 4.75 0 0 1-.726 2.98ZM121.974 73.17l-6.656-4.1.038-.096c-1.38.525-1.952 2.978-1.724 4.983.228 2.005 1.001 3.798 1.391 5.752.527 2.674.328 5.44-.576 8.012a65.597 65.597 0 0 0 7.707-10.62 5.7 5.7 0 0 0 .697-1.547 2.458 2.458 0 0 0-.163-1.749 1.95 1.95 0 0 0-.714-.636Z" fill="#21BDE9"/><path d="M113.218 48.315a2.453 2.453 0 0 0-.113 1.784c.219.474.616.841 1.105 1.023l1.226.608c.408.202.847.407 1.263.24.502-.2.849-.987.759-1.717-.095-.776-.585-1.31-1.038-1.766l-1.9-1.91-.357.438a4.77 4.77 0 0 0-.945 1.3ZM156.368 56.618l1.655.39c-.096 1.862-1.02 3.586-2.258 4.211-.516.26-1.09.356-1.517.841-.386.442-.582 1.128-.762 1.785a4392.44 4392.44 0 0 1-.944 3.438c-.338 1.234-.772 2.606-1.651 3.05-.754.383-1.617-.085-2.197-.87-.58-.784-.934-1.839-1.277-2.867.021 1.12-.5 2.22-1.238 2.61-.74.39-1.641.037-2.135-.833-.356-.624-.504-1.448-.852-2.082-.349-.633-1.08-.996-1.461-.402-.251.395-.219 1-.343 1.502a1.634 1.634 0 0 1-1.363 1.311 2.27 2.27 0 0 1-1.631-.745 7.39 7.39 0 0 1-2.026-4.087 4.864 4.864 0 0 1 .057-2.235c.218-.692.747-1.226 1.272-1.094.345-.73-.337-1.697-.95-1.612-.616.085-1.098.746-1.603 1.253-.504.507-1.208.875-1.715.371a.698.698 0 0 1-.706.739 2.522 2.522 0 0 1-.92-.488c-1.162-.724-2.636-.243-3.462 1.127.516-2.196 1.272-4.715 2.857-5.231.648-.212 1.354-.038 1.966-.404 1.083-.65 1.302-3.103.366-4.115.12.957.096 2.074-.409 2.729-.505.655-1.565.228-1.501-.74a.65.65 0 0 1-1.206.256c-.337-.512-.308-1.35-.07-1.962a4.625 4.625 0 0 1 1.037-1.474c.845-.905 1.703-1.822 2.681-2.39.98-.57 2.112-.762 3.094-.197.518.3.973.797 1.501 1.06a1.117 1.117 0 0 0 1.236-.04c.119-.086.219-.194.296-.318l.018-.03c.393-.69.208-1.714.354-2.577.261-1.525 1.786-2.238 2.631-1.231-.632-.162-1.285.585-1.363 1.49-.08.906.377 1.82.989 2.095 1.028.455 2.035-.69 2.813-1.751.811-1.11 1.623-2.22 2.437-3.329.13-.189.276-.366.436-.53a1.4 1.4 0 0 1 1.916-.04c.821.672 1.207 2.047 1.882 2.993.978 1.376 2.442 1.71 3.805 1.977 1.016.198 2.032.396 3.049.596a31.62 31.62 0 0 1 1.77 3.909 10.714 10.714 0 0 0-4.558 3.94ZM161.904 55.775a6.438 6.438 0 0 0-.338 1.905c-.871-1.064-1.01-3.058-.437-4.439.293.83.552 1.674.775 2.534ZM159.652 78.025a31.887 31.887 0 0 1-2.65 4.436c-.641-.274-1.329.215-1.929.674-.626.48-1.378.948-2.021.51-.656-.447-.868-1.702-.66-2.696a7.207 7.207 0 0 1 1.231-2.534c.534-.797 1.105-1.625 1.847-1.934.744-.31 1.699.128 1.916 1.185l.526-.018c-.295-.405-.14-1.245.257-1.393.457-.173.854.456 1.124 1.01.121.251.244.504.359.76Z" fill="#21BDE9"/><path d="M139.485 70.51c-1.132.071-2.028-1.322-2.624-2.693-.596-1.371-1.139-2.939-2.16-3.637-.584-.398-1.249-.453-1.882-.646a2.33 2.33 0 0 1-1.598-1.407l-.718-.29a10.79 10.79 0 0 0-2.726 1.943 6.095 6.095 0 0 0-1.624 3.552c-.137 1.437.369 3.04 1.315 3.58.748.426 1.619.157 2.376.548.946.488 1.508 1.906 1.721 3.305.212 1.4.158 2.854.311 4.27.152 1.415.571 2.888 1.439 3.614 1.086.907 2.679.153 3.167-1.5.239-.81.23-1.725.409-2.566.315-1.481 1.164-2.58 1.838-3.796.674-1.216 1.204-2.866.756-4.277ZM128.301 55.95c.106.098.204.202.295.314a1.029 1.029 0 0 1-.018 1.062.987.987 0 0 0 .707-.36c.207-.236.388-.492.542-.764a.831.831 0 0 0 .16-.667c-.053-.152-.18-.217-.268-.332a2.25 2.25 0 0 1-.248-.72 1.296 1.296 0 0 0-.942-.992l.057.01a.535.535 0 0 0-.252.573c.034.222.177.406.162.633-.02.325-.345.478-.365.804a.62.62 0 0 0 .17.44ZM126.362 50.417h.005a.954.954 0 0 0 .097-.104l-.102.104Z" fill="#21BDE9"/><path d="M126.701 51.946a.986.986 0 0 0 .308-.979c-.083-.37-.374-.62-.642-.55a.658.658 0 0 1-.608.178c-.166-.042-.348-.152-.492-.027a.753.753 0 0 0-.168.327l-.16.49a.312.312 0 0 0-.018.187.155.155 0 0 0 .12.095l.959.283a.826.826 0 0 0 .701-.004ZM150.831 73.047l-.443-.726a2.43 2.43 0 0 0-.584-.733.512.512 0 0 0-.572-.063.51.51 0 0 0-.157.127l-.008.01.018.138c.396.424.665.95.779 1.519.033.247.022.503.051.751a.874.874 0 0 0 .274.613c.232.156.506-.074.671-.353.148-.23.215-.503.189-.775a1.354 1.354 0 0 0-.218-.508ZM153.149 73.362c.028-.227.01-.457-.054-.676-.011-.296.068-.59.225-.84a2.71 2.71 0 0 0 .352-.771.648.648 0 0 0-.017-.378c-.049-.11-.167-.16-.235-.073l.145.094a1.322 1.322 0 0 0-.59.029.734.734 0 0 0-.447.504 3.121 3.121 0 0 1-.117.523c-.087.178-.255.238-.36.394a.937.937 0 0 0 .014.895c.133.223.344.389.591.465.178.064.412.067.493-.166ZM157.277 74.607c.064.167.15.325.255.47.198.199.466.076.706.028a1.221 1.221 0 0 1 1.161.466 2.96 2.96 0 0 0-1.699-2.12 4.995 4.995 0 0 0-1.748-.274l-.102.026c.259.753 1.071.736 1.427 1.404ZM139.795 76.148l.001.003.03-.057-.031.054Z" fill="#21BDE9"/><path d="M139.169 77.36a5.603 5.603 0 0 0-.352.772c-.128.43-.214.873-.254 1.32-.032.255-.042.58.118.704a.224.224 0 0 0 .295-.04c.089-.094.161-.202.215-.32.313-.539.557-1.117.724-1.718a2.986 2.986 0 0 0-.119-1.927l-.627 1.209ZM133.128 45.064a.71.71 0 0 0 .768.15c.267-.116.511-.278.723-.477a1.69 1.69 0 0 0 .438-.478.978.978 0 0 0 .09-.739.75.75 0 0 0-.572-.452l-1.064-.316.257-.231c-.265-.142-.557.12-.722.447-.106.212-.179.44-.219.674a1.731 1.731 0 0 0 .301 1.422ZM139.392 42.961a.586.586 0 0 0 .798.065.887.887 0 0 0 .354-.636c.025-.28-.113-.59-.31-.614l.045-.26c-.38-.07-.847-.083-1.05.378a1.085 1.085 0 0 0 .163 1.067Z" fill="#21BDE9"/><path opacity=".35" d="M199.452 65.457c2.095-.914-2.154-1.446-6.975-1.62-4.82-.176-10.651-.166-13.732-.663-2.979-.481-2.76-1.337-3.01-2.111-.251-.775-1.396-1.57-6.045-1.742-5.793-.215-15.346.611-19.72.115-4.081-.463-1.655-1.915-7.606-1.97-3.398-.032-7.775.447-11.556.562a42.118 42.118 0 0 1-8.019-.418c-1.843-.302-3.127-.685-5.201-.952-5.445-.7-16.099-.464-25.608.433-9.51.898-17.66 2.369-22.257 3.825-4.597 1.457-5.867 2.892-4.796 4.108.683.777 2.433 1.503 6.677 1.815 7.94.584 22.074-.421 30.277.11 4.572.296 6.601 1.03 10.612 1.432 4.31.431 10.619.454 16.818.444 12.906-.022 26.143-.154 39.64-.397 5.638-.102 11.545-.234 17.544-.718 5.999-.484 12.117-1.418 13.383-2.294" fill="#fff"/><path d="M163.028 105.809c-2.93 0-6.14-.11-9.632-.332-18.06-1.147-41.454-5.135-65.872-11.229-24.418-6.094-46.943-13.566-63.425-21.04C16.07 69.567 9.91 66.12 5.784 62.965 1.418 59.623-.492 56.71.107 54.308c1.168-4.68 11.509-5.704 19.978-5.74l.003.682c-11.63.047-18.492 1.902-19.32 5.223-1.055 4.23 7.551 10.832 23.612 18.115 16.446 7.457 38.93 14.915 63.309 21 24.379 6.084 47.73 10.065 65.75 11.21 17.599 1.118 28.299-.667 29.354-4.896.876-3.511-4.9-8.684-16.263-14.566l.313-.604c8.256 4.273 17.841 10.403 16.61 15.335-.599 2.402-3.653 4.076-9.077 4.974-3.092.512-6.89.768-11.348.768Z" fill="#21BDE9"/><path d="M51.268 106.696c-8.076 0-15.584-.277-22.305-.837-8.785-.731-15.747-1.906-20.691-3.493C3.037 100.686.26 98.585.017 96.12c-.472-4.8 8.923-9.24 16.888-12.118l.232.64C6.198 88.595.359 92.648.694 96.054c.427 4.338 10.751 7.664 28.326 9.127 17.995 1.498 41.676.967 66.682-1.495s48.337-6.559 65.695-11.536c16.951-4.862 26.429-10.138 26.002-14.476-.354-3.601-7.532-6.532-20.211-8.253l.092-.675c9.212 1.25 20.299 3.803 20.796 8.862.243 2.464-2.072 5.067-6.878 7.735-4.541 2.52-11.14 5.03-19.614 7.46-17.396 4.99-40.77 9.095-65.815 11.56-15.712 1.547-30.908 2.333-44.501 2.333ZM99.327 121.072a3.967 3.967 0 1 0 0-7.933 3.967 3.967 0 0 0 0 7.933Z" fill="#21BDE9"/><path d="M21.227 97.653a3.966 3.966 0 1 0 0-7.933 3.966 3.966 0 0 0 0 7.933Z" fill="#E6E6E6"/><path d="M94.047 36.852a2.428 2.428 0 1 0 0-4.856 2.428 2.428 0 0 0 0 4.856Z" fill="#FF6584"/><path d="M79.357 55.182a3.966 3.966 0 1 0 0-7.933 3.966 3.966 0 0 0 0 7.933Z" fill="#E6E6E6"/></g><defs><clipPath id="a"><path fill="#fff" transform="translate(0 20)" d="M0 0h200v133.333H0z"/></clipPath></defs></svg>